<svg width="32" height="32" viewBox="0 0 32 32" fill="none" xmlns="http://www.w3.org/2000/svg">
<g clip-path="url(#clip0_194_633)">
<path fill-rule="evenodd" clip-rule="evenodd" d="M15.9494 0.484863C18.834 0.51778 21.4399 1.22672 23.7672 2.61169C26.0667 3.96902 27.9796 5.89358 29.3229 8.20136C30.6994 10.5427 31.4041 13.1644 31.4369 16.0665C31.3552 20.0374 30.1027 23.4288 27.6796 26.241C25.2565 29.0531 22.1531 30.7928 18.9404 31.4598V20.3268H21.9777L22.6646 15.9518H18.0654V13.0863C18.0399 12.4923 18.2277 11.9087 18.595 11.4411C18.9628 10.9722 19.6105 10.7258 20.5381 10.7018H23.3154V6.86941C23.2756 6.85659 22.8974 6.80589 22.181 6.71731C21.3686 6.62225 20.5515 6.57147 19.7335 6.56521C17.8822 6.57375 16.418 7.09599 15.341 8.13192C14.2639 9.16756 13.7137 10.6659 13.6904 12.627V15.9518H10.1904V20.3268H13.6904V31.4598C9.74574 30.7928 6.6423 29.0531 4.21918 26.241C1.79605 23.4288 0.543677 20.0374 0.461914 16.0665C0.494627 13.1643 1.19928 10.5425 2.57589 8.20136C3.91919 5.89359 5.83207 3.96902 8.13162 2.61169C10.4588 1.22699 13.0648 0.518047 15.9494 0.484863Z" fill="black"/>
</g>
<defs>
<clipPath id="clip0_194_633">
<rect width="32" height="32" fill="white"/>
</clipPath>
</defs>
</svg>
