<svg width="40" height="40" viewBox="0 0 40 40" fill="none" xmlns="http://www.w3.org/2000/svg">
<path d="M35.9997 20.48C36.2397 11.32 28.8797 3.87997 19.7597 3.99997C10.9997 4.11997 3.91969 11.36 3.99969 20.12C4.03969 26.4 7.71969 31.8 12.9997 34.4C13.3197 34.56 13.6797 34.32 13.6397 33.96C13.5997 32.92 13.6397 31.84 13.8397 30.96C14.0397 30.08 14.8397 26.72 15.3597 24.52C15.5997 23.44 15.6397 22.32 15.4397 21.24C15.3597 20.88 15.3197 20.48 15.3197 20C15.3197 17.64 16.6797 15.88 18.3997 15.88C19.8397 15.88 20.5597 16.96 20.5597 18.28C20.5597 19.72 19.6397 21.92 19.1597 23.96C18.7597 25.64 19.9997 27.04 21.6797 27.04C24.7197 27.04 27.0397 23.84 27.0397 19.24C27.0397 15.16 24.1197 12.32 19.9197 12.32C15.0797 12.32 12.2397 15.96 12.2397 19.72C12.2397 21.2 12.7997 22.76 13.5197 23.6C13.6397 23.76 13.6797 23.92 13.6397 24.08C13.5197 24.6 13.2397 25.76 13.1597 26C13.0797 26.32 12.9197 26.36 12.5997 26.24C10.4797 25.2 9.11969 22.08 9.11969 19.6C9.11969 14.24 12.9997 9.31997 20.3597 9.31997C26.2397 9.31997 30.8397 13.52 30.8397 19.16C30.8397 25.04 27.1597 29.72 21.9997 29.72C20.6397 29.72 19.3597 29.16 18.5997 28.4C18.3597 28.16 17.9597 28.28 17.8797 28.6C17.5997 29.6 17.1997 31.28 17.0397 31.8C16.7997 32.76 16.2797 33.88 15.7197 34.88C15.5597 35.12 15.7197 35.48 15.9997 35.52C17.3197 35.84 18.6797 36.04 20.0797 36C28.5597 35.92 35.7597 28.88 35.9997 20.48Z" fill="black"/>
</svg>
