<?xml version="1.0" encoding="UTF-8"?>
<svg version="1.1" xmlns="http://www.w3.org/2000/svg" width="1920" height="1080">
<path d="M0 0 C633.6 0 1267.2 0 1920 0 C1920 356.4 1920 712.8 1920 1080 C1286.4 1080 652.8 1080 0 1080 C0 723.6 0 367.2 0 0 Z " fill="#FEFEFE" transform="translate(0,0)"/>
<path d="M0 0 C5.36787898 1.88869816 8.45991584 4.91983169 11 10 C11.09541191 11.41700641 11.12915738 12.83840423 11.13142776 14.2586174 C11.13526891 15.15761536 11.13911005 16.05661333 11.1430676 16.98285365 C11.14220112 17.97679991 11.14133463 18.97074617 11.14044189 19.99481201 C11.14341302 21.04584398 11.14638414 22.09687594 11.1494453 23.17975736 C11.15816285 26.72498939 11.15964312 30.27018777 11.16113281 33.81542969 C11.16575884 36.34782992 11.17078321 38.88022946 11.17617798 41.41262817 C11.18932512 48.30938714 11.19578795 55.20613496 11.20018864 62.10290432 C11.20294953 66.40829784 11.20718664 70.71368911 11.21169281 75.01908112 C11.22388763 86.93620538 11.23418608 98.85332785 11.2375679 110.77045822 C11.23789725 111.91505435 11.23789725 111.91505435 11.23823325 113.08277364 C11.23845153 113.84768127 11.23866981 114.61258889 11.2388947 115.40067554 C11.23933817 116.95071077 11.23978473 118.50074601 11.24023438 120.05078125 C11.24056652 121.20409187 11.24056652 121.20409187 11.24090537 122.38070169 C11.24485286 134.83754467 11.26230441 147.29432913 11.2855939 159.75114951 C11.30930433 172.53620443 11.32176964 185.32123 11.32293582 198.10630727 C11.32385283 205.2863046 11.32961149 212.46622573 11.34775543 219.64620209 C11.3647611 226.39963939 11.36641132 233.1529073 11.35761642 239.90636826 C11.35684386 242.38719189 11.36121748 244.86802319 11.37107468 247.34882736 C11.38372971 250.73181003 11.37795206 254.11427477 11.36749268 257.49725342 C11.37957728 258.97478848 11.37957728 258.97478848 11.39190602 260.48217273 C11.34228443 267.33018231 10.07023906 271.49392113 5.625 276.875 C1.62184413 279.99080646 -3.01284641 279.56067473 -7.87890625 279.56640625 C-11.74416665 278.86495098 -13.29729895 277.84130111 -16 275 C-19.15231478 269.42603943 -19.5192318 264.38457666 -19.6875 258.0625 C-19.72166016 257.18787109 -19.75582031 256.31324219 -19.79101562 255.41210938 C-19.87275657 253.27516746 -19.9380713 251.13760782 -20 249 C-20.52207031 249.68964844 -21.04414062 250.37929688 -21.58203125 251.08984375 C-34.88840432 268.07819045 -53.45887576 279.995743 -75 283 C-100.48923229 285.05243224 -122.20320676 279.33231084 -141.875 262.79296875 C-161.98538267 245.18421056 -173.66386616 219.46111172 -176 193 C-177.82727152 160.14618771 -170.44389543 131.32812641 -148.75 105.875 C-132.365998 88.23498422 -110.83369959 80.18106219 -87.1953125 78.7734375 C-65.23545712 78.27123707 -44.57107875 86.84547691 -28.421875 101.55859375 C-26.45990175 103.53638937 -24.65136216 105.53421095 -22.84863281 107.65258789 C-22.31361145 108.28024551 -21.77859009 108.90790314 -21.22735596 109.55458069 C-20.82232849 110.03156906 -20.41730103 110.50855743 -20 111 C-19.99413376 109.73323929 -19.98826752 108.46647858 -19.98222351 107.16133118 C-19.92503048 95.22796949 -19.85228659 83.29479062 -19.76428509 71.36161518 C-19.71954237 65.22652307 -19.68029468 59.09149796 -19.65356445 52.95629883 C-19.62757067 47.03637739 -19.58719568 41.11671328 -19.53681374 35.19695091 C-19.52011852 32.93754462 -19.50862082 30.67809379 -19.50238609 28.41863441 C-19.49277409 25.25578406 -19.46474869 22.09359602 -19.43237305 18.9309082 C-19.43380814 17.99510925 -19.43524323 17.0593103 -19.4367218 16.09515381 C-19.36641345 11.24396242 -19.16810672 7.92605588 -16 4 C-11.00370096 -0.50885523 -6.43087552 -0.85884657 0 0 Z " fill="#010101" transform="translate(1865,393)"/>
<path d="M0 0 C3.27796003 2.90486267 6.39532825 5.9514055 9.46484375 9.07421875 C10.22539062 9.83605469 10.9859375 10.59789062 11.76953125 11.3828125 C33.5551802 34.48238191 37.50289102 63.98223818 36.64404297 94.35888672 C36.30395067 101.4100101 34.8767797 107.44139489 32.46484375 114.07421875 C32.04534494 115.38581629 31.62878298 116.69835601 31.21484375 118.01171875 C23.38184109 141.78250732 6.34615139 161.03949955 -15.53515625 173.07421875 C-30.92763465 180.33545313 -44.67662654 183.50015464 -61.72265625 183.44921875 C-62.40769226 183.44867493 -63.09272827 183.4481311 -63.79852295 183.4475708 C-90.56459149 183.34984733 -112.53770249 172.71661739 -131.72265625 154.19921875 C-136.29902991 149.50843574 -140.02779535 144.59768734 -143.53515625 139.07421875 C-144.39560547 137.80771484 -144.39560547 137.80771484 -145.2734375 136.515625 C-160.59579222 112.56382881 -163.07609862 81.58347772 -157.08300781 54.26904297 C-150.51577715 27.95914831 -133.91463644 6.05803736 -110.875 -7.95703125 C-77.04034496 -27.90167001 -30.37667442 -25.82901593 0 0 Z " fill="#FDFDFD" transform="translate(470.53515625,492.92578125)"/>
<path d="M0 0 C23.36874952 -0.6001605 49.36327359 10.28835715 66.5 26.125 C78.87443403 38.20699839 87.88951266 53.13558447 91.49609375 70.125 C91.67309814 70.90931396 91.85010254 71.69362793 92.0324707 72.50170898 C93.67564018 80.46956022 93.82842676 88.2593336 93.80859375 96.375 C93.82470703 97.67824219 93.84082031 98.98148438 93.85742188 100.32421875 C93.86365544 112.9035529 92.21590771 124.92729843 86.74609375 136.375 C86.39393799 137.13312988 86.04178223 137.89125977 85.67895508 138.67236328 C80.28186361 150.05421601 73.32102762 159.21881674 64.49609375 168.125 C63.69171875 168.94226563 62.88734375 169.75953125 62.05859375 170.6015625 C47.29930744 184.72969511 28.15678394 191.33125323 8.49609375 195.125 C7.69743896 195.301521 6.89878418 195.47804199 6.07592773 195.65991211 C-17.03787256 199.82682699 -42.01963784 193.78977447 -61.50390625 181.125 C-65.79145702 177.76346643 -69.63409311 173.95013998 -73.50390625 170.125 C-74.58091797 169.15626953 -74.58091797 169.15626953 -75.6796875 168.16796875 C-85.64918417 158.99763013 -92.48504499 146.95148058 -96.50390625 134.125 C-97.05498047 132.37509766 -97.05498047 132.37509766 -97.6171875 130.58984375 C-100.91496391 119.5692746 -102.88160949 109.07984995 -102.81640625 97.5625 C-102.8114917 96.52254883 -102.80657715 95.48259766 -102.80151367 94.41113281 C-102.42163463 69.03131665 -93.6344319 46.93669226 -76.06640625 28.375 C-70.95012596 23.43002373 -64.96786225 20.27321437 -58.60546875 17.21484375 C-56.30596869 16.02235208 -54.18158445 14.6520169 -52.00390625 13.25 C-36.17937101 3.69236786 -18.17890714 0.90752735 0 0 Z " fill="#5482B0" transform="translate(1084.50390625,482.875)"/>
<path d="M0 0 C3.5 1.8125 3.5 1.8125 6 4 C6.71639648 4.5736731 6.71639648 4.5736731 7.44726562 5.15893555 C9.81646696 7.96807819 10.9852927 11.27050435 12.34375 14.64453125 C12.66479706 15.42432343 12.98584412 16.2041156 13.31661987 17.00753784 C14.38473209 19.60638718 15.44223614 22.20942352 16.5 24.8125 C17.25656011 26.65827237 18.01389977 28.50372538 18.77197266 30.34887695 C20.37258939 34.24713299 21.96937391 38.14692738 23.56347656 42.04785156 C27.08225702 50.65255319 30.63994223 59.24115396 34.19384766 67.83139038 C36.19132307 72.66142671 38.18541715 77.49285841 40.1796875 82.32421875 C44.55663354 92.92670694 48.93532188 103.52847482 53.31451416 114.1300354 C55.29308438 118.91999265 57.27153617 123.70999881 59.25 128.5 C60.0416661 130.4166669 60.83333277 132.33333357 61.625 134.25 C66.375 145.75 66.375 145.75 67.56230164 148.62452698 C68.35462272 150.54277319 69.14695061 152.4610166 69.93928528 154.3792572 C71.90849501 159.14673381 73.87758955 163.91425793 75.84643555 168.68188477 C79.52736742 177.59504106 83.2094352 186.50772308 86.89541626 195.41879272 C88.620166 199.58866686 90.3442854 203.7588015 92.06835938 207.92895508 C92.88363827 209.90043894 93.69921966 211.87179774 94.51513672 213.84301758 C96.6943724 219.10806191 98.86801611 224.37532614 101.03182983 229.64672852 C101.96717838 231.92022251 102.90982119 234.19059343 103.8527832 236.4609375 C104.40491469 237.80580285 104.95662038 239.15084313 105.5078125 240.49609375 C105.97977051 241.63876709 106.45172852 242.78144043 106.93798828 243.95874023 C108.79052353 249.26380496 109.04292821 253.52990686 106.8125 258.8125 C103.48045028 262.83393932 100.24121013 265.50376822 94.984375 266.30859375 C94.24703125 266.35113281 93.5096875 266.39367187 92.75 266.4375 C92.02296875 266.49808594 91.2959375 266.55867188 90.546875 266.62109375 C85.90268106 265.48853725 82.45619016 262.21285016 79.85498047 258.26000977 C78.81716023 256.22808111 77.9281004 254.17365977 77.0625 252.0625 C76.7111499 251.2470874 76.3597998 250.4316748 75.99780273 249.59155273 C74.63867631 246.40495417 73.31870944 243.20354864 72 240 C71.35574457 238.44389619 70.71119261 236.88791514 70.06640625 235.33203125 C64.64864347 222.2470833 59.25974973 209.14937431 54 196 C14.4 196 -25.2 196 -66 196 C-71.94 210.52 -77.88 225.04 -84 240 C-93.81818182 262.90909091 -93.81818182 262.90909091 -100 266 C-104.5470877 266.41849303 -108.67365093 266.53618367 -112.9375 264.8125 C-116.1150103 262.02014247 -117.7966297 259.97730231 -118.24230957 255.644104 C-118.38659359 248.69712466 -117.19902134 243.55473577 -114.40625 237.234375 C-114.02827271 236.33555603 -113.65029541 235.43673706 -113.26086426 234.51068115 C-112.02501324 231.58254618 -110.76255168 228.66670837 -109.5 225.75 C-108.62420977 223.68643361 -107.75054098 221.6219657 -106.87890625 219.55664062 C-105.1068495 215.36182709 -103.32622971 211.1708187 -101.5390625 206.98242188 C-98.26806875 199.29877659 -95.10468156 191.57233518 -91.95367432 183.83889771 C-90.33674375 179.87335608 -88.71137625 175.91127896 -87.0859375 171.94921875 C-86.59418533 170.7502018 -86.59418533 170.7502018 -86.09249878 169.52696228 C-81.95614886 159.44743614 -77.78867937 149.38075825 -73.625 139.3125 C-67.38433716 124.2214426 -61.17514004 109.11798393 -55 94 C-49.07695152 79.50257298 -43.13644232 65.01248366 -37.16381836 50.53540039 C-36.36482017 48.59843027 -35.56629396 46.66126536 -34.76831055 44.72387695 C-32.56543388 39.37673547 -30.34851658 34.03574517 -28.11932373 28.69952393 C-26.93714986 25.84842146 -25.77731546 22.98875246 -24.61767578 20.12841797 C-23.83030997 18.21949657 -23.04240377 16.31079796 -22.25390625 14.40234375 C-21.90102036 13.5173671 -21.54813446 12.63239044 -21.18455505 11.72059631 C-16.88680136 1.43024891 -10.84554109 -1.1335735 0 0 Z " fill="#020202" transform="translate(667,407)"/>
<path d="M0 0 C21.83747553 -0.76884438 41.85648747 2.71771363 62.11962891 10.99169922 C62.90466797 11.3071167 63.68970703 11.62253418 64.49853516 11.94750977 C70.91323757 14.66273132 76.78263187 18.11614033 81.24462891 23.55419922 C83.08862219 28.27943202 82.6023478 31.96404946 81.11962891 36.74169922 C78.66948443 41.15195928 75.81837774 43.8298248 71.24462891 46.11669922 C64.47618549 46.87476488 59.29124826 44.44945343 53.11962891 41.86669922 C51.05574434 41.03424201 48.99064639 40.20478648 46.92431641 39.37841797 C45.93915039 38.98315918 44.95398438 38.58790039 43.93896484 38.18066406 C22.86770596 29.85984618 0.16632199 28.76372765 -21.75537109 34.11669922 C-22.85107422 34.38353516 -23.94677734 34.65037109 -25.07568359 34.92529297 C-38.53442696 38.64546159 -50.95430069 45.31147878 -61.75537109 54.11669922 C-63.03154297 55.14730469 -63.03154297 55.14730469 -64.33349609 56.19873047 C-82.41364986 71.58904541 -94.80855159 95.65536623 -97.75537109 119.11669922 C-97.96208356 123.71699111 -97.98328645 128.31568991 -97.99560547 132.91992188 C-98.00522384 135.0835751 -98.03626658 137.24624033 -98.06787109 139.40966797 C-98.28276256 167.35872737 -87.2299734 192.23976368 -68.27490234 212.64794922 C-47.8473023 232.66383019 -21.5183705 241.51575905 6.73388672 241.41943359 C25.21221599 241.07992023 42.50545865 236.90907158 59.24462891 229.11669922 C59.90462891 229.11669922 60.56462891 229.11669922 61.24462891 229.11669922 C61.24462891 207.00669922 61.24462891 184.89669922 61.24462891 162.11669922 C43.08507023 162.23529225 43.08507023 162.23529225 24.92578125 162.38696289 C22.64404725 162.39572725 20.36230855 162.40337131 18.08056641 162.40966797 C16.90212158 162.42501587 15.72367676 162.44036377 14.50952148 162.45617676 C4.02493053 162.45952219 4.02493053 162.45952219 -0.75537109 159.11669922 C-5.21339141 154.2972178 -6.26640729 150.19254114 -6.24755859 143.76513672 C-5.3784015 139.08824376 -2.2598524 136.15338777 1.24462891 133.11669922 C4.26802084 131.60500325 7.40268261 131.95189307 10.72021484 131.93969727 C11.49115479 131.93312607 12.26209473 131.92655487 13.05639648 131.91978455 C15.61393324 131.90003547 18.17141119 131.88838452 20.72900391 131.87841797 C21.60228584 131.87434244 22.47556778 131.87026691 23.37531281 131.86606789 C27.9987413 131.84519884 32.62214005 131.83090157 37.24560547 131.8215332 C42.01839791 131.81047568 46.79072323 131.77608593 51.56335068 131.7363615 C55.2351365 131.71019675 58.9068111 131.70184143 62.57868195 131.69825172 C64.33772176 131.69338425 66.09675655 131.68176564 67.85570526 131.66321373 C70.32133285 131.63882797 72.78575322 131.63978604 75.25146484 131.64672852 C76.33648285 131.62751343 76.33648285 131.62751343 77.44342041 131.60791016 C82.53365759 131.66000477 85.42421935 132.77175317 89.24462891 136.11669922 C93.32840351 141.61745807 93.82533789 145.89933694 93.76220703 152.62866211 C93.76921631 153.55638931 93.77622559 154.48411652 93.78344727 155.43995667 C93.80097518 158.49006557 93.78942378 161.53923801 93.77587891 164.58935547 C93.77857508 166.71732256 93.78245855 168.84528845 93.78747559 170.97325134 C93.7933634 175.42589078 93.78482972 179.87820858 93.76611328 184.33081055 C93.74331054 190.03282007 93.75646011 195.73407699 93.78040314 201.436059 C93.79486848 205.82760777 93.79025192 210.21897858 93.77989197 214.61053276 C93.77722745 216.71284512 93.78048473 218.81517375 93.78981018 220.91746712 C93.79998921 223.85678958 93.7844559 226.79489859 93.76220703 229.73413086 C93.77030396 230.59923279 93.77840088 231.46433472 93.78674316 232.35565186 C93.68879158 239.3541612 91.34682506 242.91894869 86.49462891 247.99169922 C65.25916306 265.32492134 31.96351122 272.80028802 5.30712891 272.61669922 C4.59940338 272.61460449 3.89167786 272.61250977 3.1625061 272.61035156 C-34.07029575 272.38542085 -65.74545032 258.51550192 -92.75537109 233.11669922 C-93.64095703 232.32779297 -93.64095703 232.32779297 -94.54443359 231.52294922 C-116.06020938 211.53673095 -130.52888272 178.25737914 -131.94799805 149.16821289 C-132.03106472 145.57824995 -132.03672465 141.9899089 -132.01611328 138.39916992 C-132.00540203 136.18559279 -132.0160659 133.97282988 -132.02880859 131.75927734 C-132.04133819 120.16115202 -130.96456323 108.95152524 -127.56787109 97.80419922 C-127.35356445 97.09473145 -127.13925781 96.38526367 -126.91845703 95.65429688 C-116.48325641 62.31921822 -93.89968363 33.71997132 -63.39990234 16.47216797 C-43.11804505 6.07659266 -22.7263976 0.96253926 0 0 Z " fill="#020202" transform="translate(164.75537109375,403.88330078125)"/>
<path d="M0 0 C3.27796003 2.90486267 6.39532825 5.9514055 9.46484375 9.07421875 C10.22539062 9.83605469 10.9859375 10.59789062 11.76953125 11.3828125 C33.5551802 34.48238191 37.50289102 63.98223818 36.64404297 94.35888672 C36.30395067 101.4100101 34.8767797 107.44139489 32.46484375 114.07421875 C32.04534494 115.38581629 31.62878298 116.69835601 31.21484375 118.01171875 C23.38184109 141.78250732 6.34615139 161.03949955 -15.53515625 173.07421875 C-30.92763465 180.33545313 -44.67662654 183.50015464 -61.72265625 183.44921875 C-62.40769226 183.44867493 -63.09272827 183.4481311 -63.79852295 183.4475708 C-90.56459149 183.34984733 -112.53770249 172.71661739 -131.72265625 154.19921875 C-136.29902991 149.50843574 -140.02779535 144.59768734 -143.53515625 139.07421875 C-144.39560547 137.80771484 -144.39560547 137.80771484 -145.2734375 136.515625 C-160.59579222 112.56382881 -163.07609862 81.58347772 -157.08300781 54.26904297 C-150.51577715 27.95914831 -133.91463644 6.05803736 -110.875 -7.95703125 C-77.04034496 -27.90167001 -30.37667442 -25.82901593 0 0 Z M-111.93994141 29.65380859 C-127.82465505 48.868913 -129.97040178 70.88315539 -128.53515625 95.07421875 C-126.49887206 112.84601954 -116.48187444 130.30050316 -102.59375 141.58984375 C-89.66739518 150.91055501 -77.04970068 155.4881182 -61.09765625 155.38671875 C-60.17605713 155.3818042 -59.25445801 155.37688965 -58.30493164 155.37182617 C-51.63280426 155.25682 -45.78161864 154.53135798 -39.53515625 152.07421875 C-38.54386719 151.72230469 -37.55257812 151.37039063 -36.53125 151.0078125 C-29.53652491 148.35524466 -24.18761643 144.92242107 -18.53515625 140.07421875 C-17.01921875 138.96046875 -17.01921875 138.96046875 -15.47265625 137.82421875 C-2.81587555 127.0606961 4.0366475 109.12637002 6.46484375 93.07421875 C8.21501961 70.5235832 5.25394723 49.03518795 -9.6640625 31.16015625 C-10.28152344 30.47179687 -10.89898437 29.7834375 -11.53515625 29.07421875 C-12.56962891 27.91792969 -12.56962891 27.91792969 -13.625 26.73828125 C-25.00713562 14.69602177 -41.66838976 7.20658182 -58.27368164 6.73095703 C-78.95386526 6.47596093 -97.91643186 13.88528118 -111.93994141 29.65380859 Z " fill="#020202" transform="translate(470.53515625,492.92578125)"/>
<path d="M0 0 C0.98355469 0.43441406 1.96710938 0.86882812 2.98046875 1.31640625 C19.68301065 9.58522459 30.09971092 24.74572038 36 42 C38.56637757 50.92382646 39.55167645 59.41932798 39.5 68.6875 C39.49033203 70.52006348 39.49033203 70.52006348 39.48046875 72.38964844 C39.27579378 82.59377317 37.84067479 91.55130066 34 101 C33.72124023 101.69512695 33.44248047 102.39025391 33.15527344 103.10644531 C26.8401194 118.2893904 16.21483997 130.97888025 1.1484375 138.125 C-2.80489269 139.73508357 -6.87984322 140.89989011 -11 142 C-11.92558716 142.26018921 -11.92558716 142.26018921 -12.86987305 142.52563477 C-28.51096303 146.00880243 -44.52464758 141.98072342 -58 134 C-74.19692836 122.82411943 -84.52355977 106.2608394 -88.12231445 86.93847656 C-91.6170985 64.70033213 -89.48566636 42.14536213 -77 23 C-73.71560251 18.61306194 -69.93722709 14.79744388 -66 11 C-65.35546875 10.32453125 -64.7109375 9.6490625 -64.046875 8.953125 C-47.3868782 -7.41713273 -20.45180679 -9.06031864 0 0 Z " fill="#FEFEFE" transform="translate(1808,505)"/>
<path d="M0 0 C16.09570143 12.34080095 23.90077471 29.2511432 26.59535217 49.04048157 C28.25885439 62.92095288 28.3451823 76.76633316 28.37109375 90.73046875 C28.3800821 93.26247707 28.38920427 95.79448492 28.39845276 98.32649231 C28.41481626 103.59340701 28.42262166 108.86025901 28.42553711 114.12719727 C28.42919455 120.19485744 28.45930111 126.26201891 28.50094169 132.32952613 C28.5398825 138.21298329 28.55113033 144.09629039 28.55226326 149.97988319 C28.55645906 152.46573951 28.5688674 154.95159651 28.58978081 157.43736839 C28.61667216 160.90425008 28.61187922 164.36973681 28.59936523 167.83666992 C28.62161667 169.36175423 28.62161667 169.36175423 28.64431763 170.91764832 C28.57676781 177.49830376 27.2943922 181.92375625 23 187 C18.52181495 190.61120843 14.45621331 190.56763563 8.8828125 190.41015625 C4.35480023 189.76592686 2.92149594 188.52077716 0 185 C-3.37856037 178.84775402 -3.42473837 173.43151763 -3.38476562 166.50366211 C-3.3901384 165.36445312 -3.39551117 164.22524414 -3.40104675 163.05151367 C-3.41080919 160.58418915 -3.41377356 158.11683036 -3.41069031 155.64948845 C-3.40620046 151.73414218 -3.42024882 147.81924512 -3.43908691 143.90394592 C-3.47685775 135.58181282 -3.48971064 127.25970561 -3.5 118.9375 C-3.51192433 109.31334916 -3.53385098 99.68942387 -3.58000183 90.06537056 C-3.59348828 86.2268354 -3.58941518 82.38858279 -3.58459473 78.55003357 C-3.6243906 60.57003421 -3.88092884 42.78419641 -16.85546875 28.8203125 C-28.10022969 19.27557917 -42.45517712 17.98957209 -56.56640625 18.75732422 C-71.56843327 20.25331287 -84.81922358 28.15191218 -95 39 C-103.27815221 49.54158579 -106.62547075 60.81371938 -106.48242188 74.09912109 C-106.48633438 75.24215698 -106.49024689 76.38519287 -106.49427795 77.56286621 C-106.50021415 80.02140125 -106.49715382 82.47997177 -106.4858551 84.93848801 C-106.46849275 88.83111229 -106.47615429 92.72300069 -106.4901123 96.6156311 C-106.51670493 104.86879447 -106.51015502 113.12181229 -106.5 121.375 C-106.48822332 130.96364546 -106.48958152 140.5519207 -106.52406311 150.140522 C-106.53115647 153.97290477 -106.51448614 157.80471677 -106.49694824 161.63705444 C-106.50265446 163.98378813 -106.50947092 166.33051947 -106.51757812 168.67724609 C-106.50626358 169.74020905 -106.49494904 170.803172 -106.48329163 171.89834595 C-106.53332859 177.95148625 -107.01966859 181.36240712 -111 186 C-111.99 187.175625 -111.99 187.175625 -113 188.375 C-117.85392036 191.00420686 -122.6206715 190.94636335 -128 190 C-132.90015549 187.45698827 -135.28962556 184.18571903 -137 179 C-137.25726891 175.68409824 -137.25726891 175.68409824 -137.26742554 171.83338928 C-137.27195665 171.12281244 -137.27648776 170.4122356 -137.28115618 169.68012613 C-137.29379148 167.30499473 -137.29218041 164.93009288 -137.29052734 162.55493164 C-137.29651306 160.84966233 -137.30331871 159.14439573 -137.31088257 157.43913269 C-137.3285434 152.81105983 -137.33323793 148.18306093 -137.33451414 143.55495763 C-137.33593603 140.66315584 -137.34020628 137.77137285 -137.34550858 134.87957573 C-137.36400773 124.7902291 -137.37217916 114.7009353 -137.37060547 104.61157227 C-137.36940346 95.20763517 -137.39051777 85.80392737 -137.4220928 76.40004832 C-137.44824186 68.32432572 -137.45897337 60.2486781 -137.45769465 52.17291349 C-137.4571847 47.35040851 -137.46288648 42.52810741 -137.48405075 37.70564461 C-137.50341058 33.17064491 -137.50357314 28.63604409 -137.48901749 24.10103035 C-137.48692562 22.43776874 -137.49165281 20.7744823 -137.5037384 19.11126328 C-137.51918402 16.83823826 -137.50988896 14.56658989 -137.49447632 12.29359436 C-137.49556585 11.02248338 -137.49665539 9.75137239 -137.49777794 8.4417429 C-136.7324722 3.15025572 -134.24926389 0.10400064 -130.3125 -3.375 C-126.01904096 -5.48122519 -122.69600276 -5.69133254 -118 -5 C-113.28121312 -3.30835942 -110.79417183 -1.13951382 -108 3 C-107.09166031 5.72501908 -106.81640015 7.62233971 -106.68359375 10.44921875 C-106.64169922 11.29677734 -106.59980469 12.14433594 -106.55664062 13.01757812 C-106.51732422 13.89865234 -106.47800781 14.77972656 -106.4375 15.6875 C-106.39431641 16.58017578 -106.35113281 17.47285156 -106.30664062 18.39257812 C-106.20064647 20.59490108 -106.09857949 22.79733473 -106 25 C-105.21689453 23.96552734 -105.21689453 23.96552734 -104.41796875 22.91015625 C-93.48964586 8.95788412 -78.97946322 -1.55077692 -62 -7 C-60.61361328 -7.44666016 -60.61361328 -7.44666016 -59.19921875 -7.90234375 C-39.95315416 -13.20907312 -16.9261068 -10.98370384 0 0 Z " fill="#020202" transform="translate(1601,482)"/>
<path d="M0 0 C5.27322153 1.82534591 7.79691086 4.60719203 11 9 C11.96761335 11.90284005 12.13115575 13.76002327 12.14476013 16.77993774 C12.15165863 17.76392548 12.15855713 18.74791321 12.16566467 19.76171875 C12.16827805 20.84018066 12.17089142 21.91864258 12.17358398 23.02978516 C12.180271 24.16668793 12.18695801 25.3035907 12.19384766 26.47494507 C12.20791322 28.94835965 12.21980245 31.42178732 12.22979546 33.89522171 C12.24619377 37.81295749 12.26943324 41.73059686 12.29469299 45.64828491 C12.36582255 56.78907184 12.42553316 67.92990541 12.47680664 79.07080078 C12.50823874 85.8824168 12.54995529 92.6939181 12.59700203 99.50544357 C12.61298976 102.09927774 12.62532618 104.69313714 12.63390923 107.28700638 C12.64610938 110.92273257 12.67028106 114.55820338 12.69702148 118.19384766 C12.69761063 119.26016418 12.69819977 120.32648071 12.69880676 121.42510986 C12.83536352 135.48932393 16.48146468 148.50405371 26.48828125 158.80859375 C38.38811658 169.19087621 52.81675807 170.88310693 68 170 C79.12270208 168.85667656 89.62331896 165.60003511 98 158 C98.79857422 157.28263672 98.79857422 157.28263672 99.61328125 156.55078125 C109.95749261 145.93927761 111.14389714 131.44370835 111.15771484 117.44677734 C111.16279556 116.31407913 111.16787628 115.18138092 111.17311096 114.01435852 C111.18377308 111.5661228 111.19240939 109.11787758 111.19923019 106.66962814 C111.21106459 102.79431893 111.23052638 98.91911888 111.25234985 95.04385376 C111.31383368 84.02959839 111.3683275 73.01535703 111.40136719 62.00097656 C111.42169093 55.25488729 111.45757563 48.50902927 111.50212479 41.76305008 C111.51628909 39.1946515 111.52500818 36.6262169 111.52817917 34.05778122 C111.53308061 30.46978071 111.55621705 26.88232385 111.58349609 23.29443359 C111.57898689 21.704589 111.57898689 21.704589 111.5743866 20.08262634 C111.64449944 13.88134779 112.10421519 9.10210027 116.53515625 4.35546875 C121.99700095 0.17876398 125.19904606 -0.63869828 132 0 C136.9492112 2.02467731 140.61845033 6.23690065 143 11 C143.09868216 12.53282371 143.13504272 14.06986274 143.14044189 15.60585022 C143.14615204 16.57690201 143.15186218 17.5479538 143.15774536 18.5484314 C143.15942215 20.15266464 143.15942215 20.15266464 143.16113281 21.78930664 C143.16609772 22.91321304 143.17106262 24.03711945 143.17617798 25.19508362 C143.19084259 28.93344732 143.19761281 32.67176844 143.203125 36.41015625 C143.20887798 39.01216127 143.21463569 41.61416627 143.22039795 44.21617126 C143.22998062 48.98796616 143.23586864 53.7597519 143.2388947 58.53155524 C143.24334943 65.51628373 143.26076805 72.50081397 143.2898953 79.48548228 C143.31432915 85.55949503 143.32184971 91.63342767 143.32357025 97.70748711 C143.32657662 100.27520252 143.33453606 102.84291752 143.34775543 105.41060066 C143.51203679 139.80832222 143.51203679 139.80832222 136.8125 154.875 C136.35967651 155.92602905 136.35967651 155.92602905 135.89770508 156.99829102 C128.2830426 173.97073148 114.96716764 186.01720097 98 193.25 C86.94677832 197.24144116 76.83059538 198.50870949 65.16552734 198.44604492 C62.76702133 198.43756021 60.37092728 198.46635491 57.97265625 198.49804688 C44.61945083 198.56022501 31.62554237 196.70090381 19.6875 190.3125 C19.02999756 189.96928711 18.37249512 189.62607422 17.69506836 189.27246094 C1.17627067 180.34250902 -9.77914524 166.04369802 -15.21875 148.125 C-18.16509447 137.76634011 -19.1499548 128.06960258 -19.17700195 117.35498047 C-19.18357315 116.21252869 -19.19014435 115.0700769 -19.19691467 113.89300537 C-19.21653429 110.13439865 -19.22828007 106.37583152 -19.23828125 102.6171875 C-19.24235678 101.33017063 -19.2464323 100.04315376 -19.25063133 98.71713638 C-19.26929736 92.61426415 -19.28388029 86.51141161 -19.2922433 80.40851676 C-19.3020354 73.38123267 -19.32842752 66.35426189 -19.36874419 59.32708824 C-19.40255636 53.22312171 -19.41438857 47.11928706 -19.41844749 41.01523209 C-19.42332176 38.4244587 -19.43495947 35.83368888 -19.45348549 33.24297714 C-19.47777397 29.62380483 -19.47693113 26.00545893 -19.4699707 22.38623047 C-19.48278076 21.31698334 -19.49559082 20.24773621 -19.50878906 19.14608765 C-19.45463451 11.42857245 -17.62202807 7.80496026 -12.3125 2.125 C-8.00838979 -0.6361273 -4.97556658 -0.80539747 0 0 Z " fill="#040404" transform="translate(1250,477)"/>
<path d="M0 0 C24.52888457 0.1605819 50.90004499 10.46986931 68.58642578 27.73828125 C80.18523566 39.64542837 90.98141459 55.93307808 92.27734375 72.9296875 C92.07421875 75.265625 92.07421875 75.265625 89.82421875 77.453125 C84.12334843 81.2105168 79.90125849 82.11087754 73.07421875 81.265625 C67.45109107 78.6703353 64.53738084 74.19527267 61.07421875 69.265625 C59.41768189 67.60908814 57.46771079 68.09456335 55.19921875 68.078125 C54.31492187 68.06394531 53.430625 68.04976562 52.51953125 68.03515625 C49.81655149 68.09494076 49.81655149 68.09494076 47.07421875 70.265625 C47.52585724 72.79480054 48.00241387 74.17658695 49.63671875 76.203125 C51.47039811 78.83405625 51.53573848 80.11190683 51.07421875 83.265625 C50.47609375 83.9875 49.87796875 84.709375 49.26171875 85.453125 C47.7403133 88.16746793 47.7403133 88.16746793 48.91796875 90.59375 C50.2512639 93.18282315 51.65377044 95.72355469 53.07421875 98.265625 C55.01061739 102.84256725 55.24406731 105.44298399 54.07421875 110.265625 C52.47265625 112.90625 52.47265625 112.90625 50.44921875 115.515625 C49.72734375 116.4746875 49.00546875 117.43375 48.26171875 118.421875 C46.9125806 120.17575459 45.55928527 121.9264563 44.19921875 123.671875 C40.05131491 129.22710335 37.4042415 134.79752656 35.02685547 141.26464844 C33.24959924 146.09024451 33.24959924 146.09024451 31.07421875 148.265625 C28.46297622 148.06476019 26.67040828 147.68043018 24.5078125 146.17578125 C22.39913431 143.36612557 22.10428421 140.28042634 21.57421875 136.890625 C20.50784153 130.10944345 20.50784153 130.10944345 17.07421875 124.265625 C14.78332838 123.59599289 14.78332838 123.59599289 12.26171875 123.703125 C7.45905709 123.44408931 4.78118696 122.52052391 1.07421875 119.265625 C-1.07124772 116.3063609 -2.11262482 113.78681613 -2.92578125 110.265625 C-3.83344238 110.25104248 -4.74110352 110.23645996 -5.67626953 110.22143555 C-9.06487435 110.16014351 -12.45269814 110.08594924 -15.84082031 110.00317383 C-17.30327833 109.97005365 -18.7658602 109.94198195 -20.22851562 109.91918945 C-22.33907528 109.88540325 -24.44851311 109.8330812 -26.55859375 109.77734375 C-27.82590332 109.75115967 -29.09321289 109.72497559 -30.39892578 109.69799805 C-35.180441 109.11181063 -38.63895256 107.76692514 -41.80078125 104.078125 C-43.29267559 100.34838914 -43.50955098 97.23039442 -42.92578125 93.265625 C-41.80078125 90.703125 -41.80078125 90.703125 -39.92578125 88.265625 C-39.30509766 87.43224609 -39.30509766 87.43224609 -38.671875 86.58203125 C-31.21451944 77.13333824 -21.52566351 74.01163419 -9.92578125 72.390625 C-4.13641745 71.49188806 1.35040161 69.85057637 6.07421875 66.265625 C6.89939468 64.19081658 6.89939468 64.19081658 7.07421875 62.265625 C5.34171875 62.8534375 5.34171875 62.8534375 3.57421875 63.453125 C1.74179428 64.06004266 -0.09171851 64.6636762 -1.92578125 65.265625 C-2.87420898 65.57886719 -2.87420898 65.57886719 -3.84179688 65.8984375 C-5.95058665 66.59141091 -8.06276779 67.27314955 -10.17578125 67.953125 C-10.86091797 68.17959717 -11.54605469 68.40606934 -12.25195312 68.6394043 C-15.89361096 69.79984965 -19.09741923 70.70176751 -22.92578125 70.265625 C-25.23828125 68.640625 -25.23828125 68.640625 -26.92578125 66.265625 C-27.46011487 60.53948261 -25.59037411 57.0171712 -23.01953125 52.046875 C-21.79484741 48.93267895 -21.73068121 46.58232563 -21.92578125 43.265625 C-23.06015625 43.09546875 -24.19453125 42.9253125 -25.36328125 42.75 C-42.98111917 39.97121665 -42.98111917 39.97121665 -48.98828125 34.328125 C-49.92578125 32.265625 -49.92578125 32.265625 -50.11328125 29.890625 C-47.09691139 23.22286006 -39.21900571 20.04943335 -32.74609375 17.5 C-27.81418634 15.81327129 -22.7479976 14.63395176 -17.67578125 13.453125 C-16.7410498 13.23390381 -15.80631836 13.01468262 -14.84326172 12.78881836 C-9.41016752 11.59118004 -4.48725534 11.03716069 1.07421875 11.265625 C1.07421875 10.605625 1.07421875 9.945625 1.07421875 9.265625 C-0.24578125 8.935625 -1.56578125 8.605625 -2.92578125 8.265625 C-3.55078125 5.390625 -3.55078125 5.390625 -3.92578125 2.265625 C-1.92578125 0.265625 -1.92578125 0.265625 0 0 Z " fill="#95D66E" transform="translate(1083.92578125,482.734375)"/>
<path d="M0 0 C3.33556823 2.59060229 5.59211454 5.03255248 6.46484375 9.2421875 C6.67152746 14.15299254 5.78574008 17.86941988 3 22 C0.26652035 24.65137867 -1.31555713 25.89891832 -5.12109375 26.4609375 C-6.21550781 26.43257813 -7.30992187 26.40421875 -8.4375 26.375 C-9.52933594 26.36210937 -10.62117187 26.34921875 -11.74609375 26.3359375 C-15 26 -15 26 -17.953125 24.99609375 C-25.44559478 22.54663247 -35.54004136 22.95748826 -42.88671875 25.890625 C-47.23584432 28.17371495 -51.11529881 31.0102717 -55 34 C-55.61746094 34.43957031 -56.23492188 34.87914062 -56.87109375 35.33203125 C-69.36598559 44.88355365 -76.79828938 62.09480818 -80 77 C-80.37291204 80.68794845 -80.3889596 84.33153626 -80.35302734 88.03588867 C-80.35518753 89.07803024 -80.35734772 90.12017181 -80.35957336 91.19389343 C-80.36263966 93.43581874 -80.35911625 95.67776116 -80.34955978 97.9196682 C-80.33572534 101.47245225 -80.34231464 105.02468383 -80.35440063 108.57746887 C-80.38523641 118.67106914 -80.38045293 128.76453623 -80.36035156 138.8581543 C-80.3494258 145.0501448 -80.36263553 151.2417167 -80.39024734 157.43364906 C-80.39567814 159.78550266 -80.3916491 162.13739838 -80.37784958 164.48921776 C-80.35876826 167.77737467 -80.37021949 171.06416106 -80.38818359 174.35229492 C-80.37484482 175.31613098 -80.36150604 176.27996704 -80.34776306 177.27301025 C-80.42578971 183.71227137 -81.83942172 188.02008585 -86 193 C-90.5026892 196.64400328 -94.58427348 196.50567388 -100.18359375 196.34765625 C-103.93665955 195.88437906 -105.61026717 194.92934992 -108 192 C-110.74124771 187.38205318 -111.38019587 183.98942891 -111.40113831 178.64393616 C-111.40793498 177.92504335 -111.41473164 177.20615055 -111.42173427 176.46547312 C-111.44065256 174.06806027 -111.43827303 171.67116064 -111.43579102 169.27368164 C-111.4447718 167.55017951 -111.45498078 165.8266834 -111.46632385 164.10319519 C-111.49279238 159.42964344 -111.49985589 154.75625653 -111.50177121 150.08263707 C-111.50390527 147.16149833 -111.51031296 144.24040135 -111.51826286 141.31927299 C-111.54600367 131.12501239 -111.55826969 120.93086937 -111.5559082 110.73657227 C-111.5541052 101.23879047 -111.58577789 91.74151949 -111.63313919 82.24386698 C-111.67237728 74.08401941 -111.68845947 65.92433875 -111.68654197 57.76439756 C-111.68577748 52.89314932 -111.69430508 48.02235538 -111.72607613 43.15120125 C-111.75514127 38.57006449 -111.75534378 33.98981578 -111.73352623 29.40864754 C-111.73039149 27.72967226 -111.7374614 26.05064146 -111.7556076 24.37176132 C-111.8997103 10.1135552 -111.8997103 10.1135552 -108.20445251 5.57151794 C-103.99375613 1.60737457 -99.97171643 0.53317158 -94.3125 0.69140625 C-89.11392929 1.38513444 -86.01619283 3.68687968 -82.84765625 7.78125 C-79.80816898 13.35618896 -80.32137555 19.75053768 -80.25 25.9375 C-80.22035156 27.19369141 -80.19070313 28.44988281 -80.16015625 29.74414062 C-80.08976804 32.82949054 -80.03691498 35.91409823 -80 39 C-79.61618164 38.27119629 -79.23236328 37.54239258 -78.83691406 36.79150391 C-68.69733308 17.81996348 -54.59506978 5.07565222 -34.296875 -2.01953125 C-23.38249728 -5.26539477 -9.97127315 -6.27614586 0 0 Z " fill="#020202" transform="translate(938,476)"/>
<path d="M0 0 C2.31644731 2.10450377 3.59187719 3.90902229 4.76733398 6.80151367 C5.08368805 7.56908997 5.40004211 8.33666626 5.72598267 9.12750244 C6.06261932 9.96585632 6.39925598 10.80421021 6.74609375 11.66796875 C7.10947845 12.55490417 7.47286316 13.4418396 7.84725952 14.35565186 C9.05078452 17.29688285 10.24398174 20.24219589 11.4375 23.1875 C12.70760202 26.29787349 13.98041224 29.40713041 15.25328064 32.51637268 C16.13929866 34.6812467 17.02442514 36.8464858 17.90870667 39.0120697 C23.22740327 52.03042404 28.65766641 65.00208043 34.08322144 77.97616577 C41.93118147 96.74876723 41.93118147 96.74876723 45.57421875 105.75390625 C46.04819092 106.92381104 46.52216309 108.09371582 47.01049805 109.29907227 C48 112 48 112 48 114 C16.98 114 -14.04 114 -46 114 C-45.32438967 110.62194833 -44.79619176 108.18363392 -43.53564453 105.12329102 C-43.23595764 104.38950226 -42.93627075 103.6557135 -42.62750244 102.89968872 C-42.13513092 101.7137764 -42.13513092 101.7137764 -41.6328125 100.50390625 C-41.28619568 99.65899628 -40.93957886 98.8140863 -40.5824585 97.943573 C-39.43431253 95.14807477 -38.27972436 92.35528663 -37.125 89.5625 C-36.31881451 87.60374459 -35.51299361 85.64483908 -34.70751953 83.68579102 C-32.57842899 78.5109596 -30.44360085 73.33851444 -28.30737305 68.16662598 C-26.58077201 63.98457579 -24.85747471 59.80116792 -23.13418579 55.61775208 C-15.48532936 37.05188481 -7.81668537 18.49594974 0 0 Z " fill="#FDFDFD" transform="translate(660,458)"/>
<path d="M0 0 C7.79638496 0.27844232 14.95164076 2.62227979 21.125 7.4375 C23 10 23 10 23.6875 12.5 C22.67170772 16.19379013 20.06528529 17.9368682 17 20 C14.49489587 21.0474303 12.28569404 21.82349607 9.6875 22.5 C8.95128418 22.70012695 8.21506836 22.90025391 7.45654297 23.10644531 C-5.0615927 26.27104576 -18.02810082 27.74067294 -30.80224609 29.50683594 C-33.26531514 29.88669542 -35.60400667 30.33124632 -38 31 C-38 31.99 -38 32.98 -38 34 C-31.91255996 35.42040268 -25.90590091 36.47953636 -19.69921875 37.2421875 C-16.31687511 38.19178904 -14.95768139 39.07072859 -13 42 C-13.10015675 47.5086211 -15.06591469 52.37423378 -17.0625 57.4375 C-17.34416016 58.16904297 -17.62582031 58.90058594 -17.91601562 59.65429688 C-18.60413247 61.43873546 -19.30114606 63.21973905 -20 65 C-17.47764087 64.23390533 -14.95719261 63.46227773 -12.4375 62.6875 C-11.73302734 62.47416016 -11.02855469 62.26082031 -10.30273438 62.04101562 C-6.84702834 60.97404648 -3.50969127 59.83354979 -0.203125 58.36328125 C3.55215491 56.76499748 5.96232749 56.39054 10 57 C13.16912804 59.68156988 13.9029541 61.33280941 14.5 65.4375 C13.74622077 70.808177 11.60574336 73.69731931 7.43359375 77.08203125 C3.15950601 79.46949096 -0.50902174 79.94834796 -5.3125 80.5 C-12.08220488 81.42328801 -18.05797742 82.42666524 -24 86 C-25.60875 86.9590625 -25.60875 86.9590625 -27.25 87.9375 C-30.19026001 90.14269501 -32.68183815 92.1363883 -35 95 C-35.41890218 98.21061788 -35.41890218 98.21061788 -35 101 C-30.59321814 102.68400084 -26.95317004 103.23992766 -22.24609375 103.23828125 C-20.97958984 103.25439453 -19.71308594 103.27050781 -18.40820312 103.28710938 C-15.75721054 103.30406112 -13.10611694 103.30923521 -10.45507812 103.30273438 C-9.18986328 103.32271484 -7.92464844 103.34269531 -6.62109375 103.36328125 C-4.89524048 103.36775269 -4.89524048 103.36775269 -3.13452148 103.37231445 C0.91862561 104.18395408 2.39118751 105.87284912 5 109 C6.30097553 111.29557799 7.07297714 113.51167548 8 116 C8.639375 115.835 9.27875 115.67 9.9375 115.5 C12.44555485 115.09052166 14.84233147 114.77219783 17.375 114.625 C18.08398438 114.57601562 18.79296875 114.52703125 19.5234375 114.4765625 C23.44691254 115.30581432 26.36219397 116.95230046 29 120 C29.96988763 123.11552842 29.98103594 126.06779232 29.9375 129.3125 C29.95361328 130.14845703 29.96972656 130.98441406 29.98632812 131.84570312 C30.02149046 133.89683911 30.0149114 135.94861684 30 138 C30.29132813 137.47680176 30.58265625 136.95360352 30.8828125 136.41455078 C41.07900041 118.19848394 41.07900041 118.19848394 47.44140625 110.91015625 C49.6763905 108.20221887 49.6763905 108.20221887 51 105 C50.17342197 101.71510272 50.17342197 101.71510272 48.6875 98.25 C45.72954132 90.69163972 45.72954132 90.69163972 45.4375 86.5625 C45.02643252 83.2152362 44.64939219 82.13610783 42.9375 79.4375 C40.70070058 75.4689849 40.34798138 73.48262803 41 69 C43.43520642 64.22324894 46.18100424 61.36403566 51 59 C56.51269765 57.99769134 61.15232883 58.88839127 66.0234375 61.5859375 C69.07275617 63.76746588 71.54679808 66.41011154 74.04296875 69.1953125 C76.27907351 71.25734922 78.09366508 72.136325 81 73 C84.76611644 72.66963891 88.36075664 72.01898814 92 71 C92.66 72.32 93.32 73.64 94 75 C88.35560346 79.70366378 84.81937436 81.49889844 77.4609375 81.3046875 C72.82463406 80.73066898 70.24584301 78.50966858 67.33984375 74.98828125 C65.84617961 73.02144691 64.41944908 71.02051872 63 69 C61.34346314 67.34346314 59.39349204 67.82893835 57.125 67.8125 C56.24070312 67.79832031 55.35640625 67.78414062 54.4453125 67.76953125 C51.74233274 67.82931576 51.74233274 67.82931576 49 70 C49.45163849 72.52917554 49.92819512 73.91096195 51.5625 75.9375 C53.39617936 78.56843125 53.46151973 79.84628183 53 83 C52.401875 83.721875 51.80375 84.44375 51.1875 85.1875 C49.66609455 87.90184293 49.66609455 87.90184293 50.84375 90.328125 C52.17704515 92.91719815 53.57955169 95.45792969 55 98 C56.93639864 102.57694225 57.16984856 105.17735899 56 110 C54.3984375 112.640625 54.3984375 112.640625 52.375 115.25 C51.653125 116.2090625 50.93125 117.168125 50.1875 118.15625 C48.83836185 119.91012959 47.48506652 121.6608313 46.125 123.40625 C41.97709616 128.96147835 39.33002275 134.53190156 36.95263672 140.99902344 C35.17538049 145.82461951 35.17538049 145.82461951 33 148 C30.38875747 147.79913519 28.59618953 147.41480518 26.43359375 145.91015625 C24.32491556 143.10050057 24.03006546 140.01480134 23.5 136.625 C22.43362278 129.84381845 22.43362278 129.84381845 19 124 C16.70910963 123.33036789 16.70910963 123.33036789 14.1875 123.4375 C9.38483834 123.17846431 6.70696821 122.25489891 3 119 C0.85453353 116.0407359 -0.18684357 113.52119113 -1 110 C-1.90766113 109.98541748 -2.81532227 109.97083496 -3.75048828 109.95581055 C-7.1390931 109.89451851 -10.52691689 109.82032424 -13.91503906 109.73754883 C-15.37749708 109.70442865 -16.84007895 109.67635695 -18.30273438 109.65356445 C-20.41329403 109.61977825 -22.52273186 109.5674562 -24.6328125 109.51171875 C-25.90012207 109.48553467 -27.16743164 109.45935059 -28.47314453 109.43237305 C-33.25465975 108.84618563 -36.71317131 107.50130014 -39.875 103.8125 C-41.36689434 100.08276414 -41.58376973 96.96476942 -41 93 C-39.875 90.4375 -39.875 90.4375 -38 88 C-37.37931641 87.16662109 -37.37931641 87.16662109 -36.74609375 86.31640625 C-29.28873819 76.86771324 -19.59988226 73.74600919 -8 72.125 C-2.2106362 71.22626306 3.27618286 69.58495137 8 66 C8.82517593 63.92519158 8.82517593 63.92519158 9 62 C7.2675 62.5878125 7.2675 62.5878125 5.5 63.1875 C3.66757553 63.79441766 1.83406274 64.3980512 0 65 C-0.94842773 65.31324219 -0.94842773 65.31324219 -1.91601562 65.6328125 C-4.0248054 66.32578591 -6.13698654 67.00752455 -8.25 67.6875 C-8.93513672 67.91397217 -9.62027344 68.14044434 -10.32617188 68.3737793 C-13.96782971 69.53422465 -17.17163798 70.43614251 -21 70 C-23.3125 68.375 -23.3125 68.375 -25 66 C-25.53433362 60.27385761 -23.66459286 56.7515462 -21.09375 51.78125 C-19.86906616 48.66705395 -19.80489996 46.31670063 -20 43 C-21.134375 42.82984375 -22.26875 42.6596875 -23.4375 42.484375 C-41.05533792 39.70559165 -41.05533792 39.70559165 -47.0625 34.0625 C-48 32 -48 32 -48.1875 29.625 C-45.17113014 22.95723506 -37.29322446 19.78380835 -30.8203125 17.234375 C-25.88840509 15.54764629 -20.82221635 14.36832676 -15.75 13.1875 C-14.81526855 12.96827881 -13.88053711 12.74905762 -12.91748047 12.52319336 C-7.48438627 11.32555504 -2.56147409 10.77153569 3 11 C3 10.34 3 9.68 3 9 C1.68 8.67 0.36 8.34 -1 8 C-1.625 5.125 -1.625 5.125 -2 2 C-1.34 1.34 -0.68 0.68 0 0 Z " fill="#67C65B" transform="translate(1082,483)"/>
<path d="M0 0 C0.495 1.485 0.495 1.485 1 3 C3.01508358 3.73323796 3.01508358 3.73323796 5 4 C5 4.66 5 5.32 5 6 C4.04222656 6.17015625 3.08445312 6.3403125 2.09765625 6.515625 C-2.27601922 7.30437521 -6.63866198 8.14595449 -11 9 C-11.72622559 9.13921875 -12.45245117 9.2784375 -13.20068359 9.421875 C-30.86633981 12.80948506 -30.86633981 12.80948506 -45 23 C-45.23450072 26.01499858 -45.23450072 26.01499858 -44 29 C-38.24007903 33.82225942 -31.9915135 35.14467782 -24.6875 36.0625 C-18.10526316 36.89473684 -18.10526316 36.89473684 -17 38 C-16.53772358 43.7454355 -18.32450571 47.2273777 -20.90625 52.21875 C-22.1632209 55.41504743 -22.41160118 57.59493567 -22 61 C-20.85275532 62.95014393 -20.85275532 62.95014393 -19 64 C-11.98486142 64.11890065 -6.0692534 61.712014 0.3269043 59.08422852 C4.02388425 57.59361991 6.99806068 56.63548227 11 57 C10.51291513 61.55119926 10.51291513 61.55119926 8.3125 63.4765625 C2.03771005 66.59275886 -3.88498315 67.79581774 -10.73364258 68.84082031 C-20.83082312 70.47364202 -28.55695384 74.9565422 -35.3125 82.625 C-38.29184567 86.81815317 -38.53752178 90.99616091 -38 96 C-36.69982738 99.14778635 -35.87757062 100.5500503 -32.84106445 102.10693359 C-29.38664866 103.1928022 -26.35058848 103.32467683 -22.73046875 103.4140625 C-22.04946609 103.43342865 -21.36846344 103.4527948 -20.66682434 103.4727478 C-18.50717407 103.53218132 -16.34746943 103.578782 -14.1875 103.625 C-12.71677456 103.66321328 -11.24607071 103.70226694 -9.77539062 103.7421875 C-6.18379211 103.83785183 -2.59203087 103.92201575 1 104 C1.33555908 104.69794678 1.67111816 105.39589355 2.0168457 106.11499023 C2.46116943 107.02450439 2.90549316 107.93401855 3.36328125 108.87109375 C3.80196533 109.77529053 4.24064941 110.6794873 4.69262695 111.61108398 C6.41481845 114.75798291 7.57919865 115.85973288 11 117 C13.5701629 117.29290781 16.10994882 117.49945102 18.6953125 117.59375 C21.54840396 118.09666782 22.32022984 118.65428546 24 121 C25.79416073 125.37875591 26.5073945 129.69884411 27.125 134.375 C27.29257813 135.62023437 27.46015625 136.86546875 27.6328125 138.1484375 C27.75398438 139.08945312 27.87515625 140.03046875 28 141 C30.31 141.33 32.62 141.66 35 142 C35.21914062 141.48953125 35.43828125 140.9790625 35.6640625 140.453125 C36.75248007 137.95772862 37.87504315 135.47913689 39 133 C39.40089844 132.08347656 39.80179688 131.16695312 40.21484375 130.22265625 C43.74205552 122.60592359 48.30765919 116.46154428 53.609375 110.03125 C57.22438782 105.50735668 57.22438782 105.50735668 57.9375 100 C56.83105073 93.73012081 53.83129658 87.66259317 51 82 C51.66 82 52.32 82 53 82 C53.60424546 78.98534059 54.06222368 76.08007212 54 73 C52.10183458 70.2094183 52.10183458 70.2094183 50 68 C50.0625 65.8125 50.0625 65.8125 51 64 C54.70803605 61.52797597 57.05077604 61.35022997 61.4296875 61.4140625 C66.16911683 62.49447952 68.29135491 66.22234298 71 70 C74.54291074 73.73441943 76.39079181 75.16457056 81.5625 75.375 C87.37087566 75.35809061 91.27385972 73.19642338 96 70 C98.53880566 75.71231273 99.11392964 81.87338696 98 88 C95.3253337 91.82208231 91.98376128 92.78536117 87.5625 93.75 C82.39415668 92.66192772 79.6809208 89.63422836 76 86 C72.34092858 82.68130732 70.88147806 81.797617 66 82 C65.9906543 82.55349121 65.98130859 83.10698242 65.97167969 83.67724609 C65.65607424 98.54473823 64.10019826 107.91226076 55.2902832 120.11279297 C51.71693569 125.15446685 49.75162037 130.12252502 48 136 C43.2503639 151.2139738 43.2503639 151.2139738 37.8125 155.875 C33.83660143 157.46535943 30.2168728 157.85913857 26 157 C22.67399109 153.92344176 21.0880327 151.08344049 20.89453125 146.50390625 C20.86746094 145.53324219 20.84039063 144.56257812 20.8125 143.5625 C20.11458749 134.82801917 16.7100226 127.14409556 10.3125 121.0625 C2.81278125 115.16368276 -5.79866493 111.91049907 -15.30859375 111.859375 C-16.30310547 111.84003906 -17.29761719 111.82070313 -18.32226562 111.80078125 C-20.39498708 111.76699394 -22.46802045 111.74870293 -24.54101562 111.74609375 C-33.02213775 111.53749657 -33.02213775 111.53749657 -36.59765625 108.703125 C-42.15670491 102.44806537 -41.62892196 95.92100102 -41.17773438 87.91796875 C-40.41121409 79.64628828 -35.38282732 73.32852744 -30.52978516 66.90771484 C-26.655781 61.76735059 -24.18006046 57.55951629 -25 51 C-27.79360806 46.74972488 -30.49633875 44.93953541 -35.125 42.9375 C-36.2696875 42.43476562 -37.414375 41.93203125 -38.59375 41.4140625 C-42.36021079 39.85046295 -46.14408372 38.35123865 -49.9765625 36.95703125 C-52.18645939 35.91180975 -53.46065709 34.89092123 -55 33 C-55.625 30.3125 -55.625 30.3125 -55 27 C-48.74372044 17.02711873 -37.44210943 10.72338052 -27 6 C-25.906875 5.46375 -24.81375 4.9275 -23.6875 4.375 C-16.10404649 1.54727157 -8.13332745 -0.56744145 0 0 Z " fill="#5EC8D5" transform="translate(1080,488)"/>
<path d="M0 0 C4.29516739 1.43954608 7.23247656 3.59646052 10.6875 6.5 C11.64011719 7.2940625 12.59273437 8.088125 13.57421875 8.90625 C16 11 16 11 18 13 C22.571678 13.39411017 25.87218558 13.22566124 30.125 11.5 C33.68122768 10.07474144 36.12782459 9.19329679 40 10 C42.86369157 12.12650364 45.40026453 14.5637699 48 17 C51.95684883 19.91557282 56.08258338 20.9698261 60.79296875 22.15625 C63 23 63 23 65 26 C65.0546875 28.63671875 65.0546875 28.63671875 64.875 31.6875 C64.78458833 40.04555684 67.30914882 44.41591314 72.875 50.5 C80.66972319 57.92170838 90.26288892 63.51901916 101 65 C100.67 65.66 100.34 66.32 100 67 C74.18977772 67.62529424 48.59167475 65.02534883 28.6875 46.5625 C26.77250468 44.72679481 24.88679691 42.8650157 23 41 C22.28199219 40.35417969 21.56398438 39.70835937 20.82421875 39.04296875 C11.13558788 30.13098164 3.3715331 17.74084614 0 5 C-0.1171875 2.1328125 -0.1171875 2.1328125 0 0 Z " fill="#67C65E" transform="translate(988,612)"/>
<path d="M0 0 C6.52286873 3.82224862 12.36380198 9.71563101 14.5625 17.0625 C15.41923578 26.9984097 15.20059444 35.59057975 8.9375 43.75 C3.02751891 50.19055296 -4.40771577 53.02022778 -13 53.5 C-20.32826552 53.41236753 -26.92163704 50.08793807 -32.42578125 45.3515625 C-39.03065629 38.107506 -40.18282198 30.57159407 -39.83984375 21.015625 C-39.02843173 13.04330492 -36.10238365 8.09526812 -29.9375 3.0625 C-21.38351534 -3.20239018 -9.7671596 -4.3982551 0 0 Z " fill="#E4A41C" transform="translate(422.4375,556.9375)"/>
<path d="M0 0 C3.70242819 2.55944373 6.96392531 5.47952676 9.50390625 9.20703125 C11.01656601 11.43803568 11.01656601 11.43803568 14.75 11.4375 C17.87625316 11.29513874 19.45970012 10.79940358 22.4375 9.5 C26.81206057 7.65807976 30.31928533 7.23126949 35 8 C38.54027445 9.80353604 40.5473203 11.4012946 42.9375 14.5625 C46.01412667 18.19851333 49.95031071 19.26945196 54.3125 20.82421875 C58.8244584 22.58299201 61.91358959 24.01818733 64.109375 28.609375 C65.79864284 33.14372551 67.25364391 37.74935846 68.65625 42.37890625 C72.96754316 53.9968387 82.49605152 59.44750407 93 65 C93.92554688 65.35578125 94.85109375 65.7115625 95.8046875 66.078125 C98 67 98 67 99 69 C98.505 70.485 98.505 70.485 98 72 C82.86738778 70.62430798 70.80351215 63.67472193 61 52 C56.80555187 46.39984492 56.66844749 41.50804562 57.15234375 34.63671875 C57.22612016 32.00740668 57.22612016 32.00740668 55.796875 30.22265625 C53.64905755 28.76120655 51.84628863 28.30687662 49.3125 27.75 C44.3318858 26.38834085 41.36358548 24.18594415 37.69140625 20.62109375 C34.76058559 17.79817871 34.76058559 17.79817871 30.9140625 16.953125 C26.06877875 17.57324504 26.06877875 17.57324504 21.4375 19.0625 C17.71962532 20.4924518 14.80945827 21.18844819 11 20 C7.96881192 17.68303295 5.30629987 15.18128192 2.61328125 12.48046875 C-0.75338957 9.28489929 -3.26272443 7 -8 7 C-8.33 5.35 -8.66 3.7 -9 2 C-5.38751859 -0.40832094 -4.26125032 -0.72360855 0 0 Z " fill="#5EC8D5" transform="translate(995,606)"/>
<path d="M0 0 C0.53625 0.2475 1.0725 0.495 1.625 0.75 C1.02744533 3.73777333 0.13957068 5.72696099 -1.66015625 8.17578125 C-2.10810547 8.80806641 -2.55605469 9.44035156 -3.01757812 10.09179688 C-3.95998771 11.39976286 -4.91047337 12.70194967 -5.86914062 13.99804688 C-8.94331346 18.37641424 -10.06105848 21.22822835 -9.375 26.75 C-8.88 27.905 -8.385 29.06 -7.875 30.25 C-5.83694838 35.00545378 -5.56240956 38.56616319 -7.375 43.4375 C-10.71353797 47.29768453 -15.18344098 49.0716603 -20 50.5625 C-24.80312914 52.96406457 -27.71816416 57.3858025 -30 62.125 C-31.375 64.75 -31.375 64.75 -33.5 65.6875 C-34.11875 65.708125 -34.7375 65.72875 -35.375 65.75 C-37.31305239 63.81194761 -36.59422188 60.37990827 -36.625 57.8125 C-36.53430987 38.96222493 -25.08057741 20.6056599 -12.25 7.3125 C-4.12116004 -0.43380632 -4.12116004 -0.43380632 0 0 Z " fill="#96D672" transform="translate(1020.375,504.25)"/>
<path d="M0 0 C2.475 0.495 2.475 0.495 5 1 C3.67600263 4.65841379 1.93690698 7.90804692 -0.0234375 11.26318359 C-4.71556973 19.22894817 -4.71556973 19.22894817 -5.8046875 28.19921875 C-4.21270378 33.74024948 -1.57079383 38.83499992 1.0546875 43.94921875 C4.20082345 50.22064545 5.67414438 56.03384143 5 63 C2.82405156 66.57477243 0.83198189 68.42567026 -3 70 C-5.28662109 70.27124023 -5.28662109 70.27124023 -7.7734375 70.30859375 C-8.6809375 70.33373047 -9.5884375 70.35886719 -10.5234375 70.38476562 C-12.41660086 70.41977618 -14.30983704 70.45105772 -16.203125 70.47851562 C-21.70521357 70.63827882 -25.07517446 71.39885975 -30 74 C-32.31 74 -34.62 74 -37 74 C-37 78.95 -37 83.9 -37 89 C-37.33 89 -37.66 89 -38 89 C-38.02911003 85.10418244 -38.04683587 81.208393 -38.0625 77.3125 C-38.07087891 76.20970703 -38.07925781 75.10691406 -38.08789062 73.97070312 C-38.09111328 72.90400391 -38.09433594 71.83730469 -38.09765625 70.73828125 C-38.10289307 69.75899658 -38.10812988 68.77971191 -38.11352539 67.77075195 C-38.00308543 65.07530428 -37.60534166 62.62454361 -37 60 C-36.67 60 -36.34 60 -36 60 C-35.67 61.98 -35.34 63.96 -35 66 C-33.04734483 65.78096272 -33.04734483 65.78096272 -31 65 C-29.86643219 63.35514408 -29.86643219 63.35514408 -29.125 61.3125 C-26.09191657 54.79137063 -22.54982923 51.41132423 -15.8125 48.8125 C-14.97332031 48.53019531 -14.13414062 48.24789062 -13.26953125 47.95703125 C-10.11397851 46.62637648 -8.5211291 45.04225819 -7 42 C-6.67728752 37.88541583 -6.86141517 35.32336461 -8.5 31.5 C-10.23422885 27.45346601 -10.49931492 25.37237931 -10 21 C-8.48991851 18.01883482 -6.56879183 15.41511133 -4.5625 12.75 C-3.54009511 11.35105398 -2.52044134 9.95009207 -1.50390625 8.546875 C-1.04830322 7.93682617 -0.5927002 7.32677734 -0.12329102 6.69824219 C1.18344789 4.88235393 1.18344789 4.88235393 2 2 C1.34 2 0.68 2 0 2 C0 1.34 0 0.68 0 0 Z " fill="#60C8D4" transform="translate(1020,503)"/>
<path d="M0 0 C1.31677734 -0.02126953 1.31677734 -0.02126953 2.66015625 -0.04296875 C4.9375 0.1875 4.9375 0.1875 6.9375 2.1875 C6.9375 10.44815907 3.30568425 14.73052355 -2.28515625 20.46875 C-8.24840131 26.12337971 -8.24840131 26.12337971 -11.83984375 26.40625 C-12.57332031 26.3340625 -13.30679687 26.261875 -14.0625 26.1875 C-15.93922475 20.55732576 -16.03398418 13.81578373 -13.8125 8.25 C-10.27070261 2.05185457 -7.08828473 0.0521965 0 0 Z " fill="#66C55B" transform="translate(1148.0625,620.8125)"/>
<path d="M0 0 C3.71163002 0.78139579 5.20771462 1.62806765 7.43359375 4.69140625 C9.70163485 8.82724591 11.07593592 13.29030776 12.5625 17.75 C12.8925 18.41 13.2225 19.07 13.5625 19.75 C13.602492 21.74960012 13.60596799 23.75047242 13.5625 25.75 C6.7538371 26.35791633 2.86792974 25.08650939 -2.4375 20.75 C-4.75 18.125 -4.75 18.125 -6.4375 15.75 C-7.41980498 14.7326127 -8.41219597 13.72403883 -9.4375 12.75 C-6.17988227 1.34833795 -6.17988227 1.34833795 0 0 Z " fill="#5EC6D6" transform="translate(1080.4375,638.25)"/>
<path d="M0 0 C1.74609375 1.87890625 1.74609375 1.87890625 2.0234375 4.83984375 C1.91128906 5.96648438 1.79914063 7.093125 1.68359375 8.25390625 C1.54244141 9.93613281 1.54244141 9.93613281 1.3984375 11.65234375 C0.6580871 15.31419662 -0.58057011 18.20557011 -3.25390625 20.87890625 C-6.50390625 21.25390625 -6.50390625 21.25390625 -10.25390625 20.87890625 C-12.94140625 18.62890625 -12.94140625 18.62890625 -15.25390625 15.87890625 C-16.01703125 15.23953125 -16.78015625 14.60015625 -17.56640625 13.94140625 C-19.25390625 11.87890625 -19.25390625 11.87890625 -19.81640625 8.94140625 C-18.95370494 4.24447692 -16.18328556 2.27604299 -12.44140625 -0.43359375 C-8.19259895 -1.76893319 -4.03065586 -2.00484962 0 0 Z " fill="#5EC8D6" transform="translate(1022.25390625,586.12109375)"/>
<path d="M0 0 C1.1446875 -0.01063477 1.1446875 -0.01063477 2.3125 -0.02148438 C7.7666719 0.04071232 7.7666719 0.04071232 10.36328125 1.734375 C12.23005151 4.87689173 12.1164089 7.98994861 11.375 11.4375 C8.40652537 17.35196081 3.54531266 21.14654249 -1.76953125 24.89453125 C-3.90305097 26.3929272 -3.90305097 26.3929272 -4.625 29.4375 C-7.14551895 32.05496199 -8.51765481 32.42620051 -12.1875 32.8125 C-15.625 32.4375 -15.625 32.4375 -17.30859375 31.35546875 C-20.44631841 26.78388771 -19.19615302 19.74335138 -18.625 14.4375 C-15.52627926 4.41447737 -10.46198189 -0.27672478 0 0 Z M-11.875 7.875 C-14.60735202 11.87594403 -14.7630252 15.21323929 -14.75 20 C-14.75257812 20.95003906 -14.75515625 21.90007813 -14.7578125 22.87890625 C-14.73270994 25.5587438 -14.73270994 25.5587438 -13.625 28.4375 C-10.29113633 28.82446632 -8.93327697 28.6499221 -6.125 26.71484375 C2.82303646 18.81306422 2.82303646 18.81306422 7.3125 8.125 C7.333125 6.908125 7.35375 5.69125 7.375 4.4375 C4.88494323 1.94744323 4.00029268 2.14046234 0.5625 2.125 C-5.2082712 2.25785229 -7.94815615 3.62091916 -11.875 7.875 Z " fill="#5EC7D2" transform="translate(1147.625,618.5625)"/>
<path d="M0 0 C2.625 0.375 2.625 0.375 5 1 C6.51910761 5.55732284 6.9653845 9.69888953 5.09375 14.16015625 C2.48949095 18.62579276 -0.24391007 21.72104024 -5 24 C-7.875 23.75 -7.875 23.75 -10 23 C-10 21.68 -10 20.36 -10 19 C-9.236875 18.34 -8.47375 17.68 -7.6875 17 C-4.01789073 13.71393746 -3.61077503 9.29655551 -2.67578125 4.64453125 C-2 2 -2 2 0 0 Z " fill="#5EC7D6" transform="translate(1152,586)"/>
<path d="M0 0 C2.0625 0.4375 2.0625 0.4375 4 1 C5.3329995 5.36254382 5.3329995 5.36254382 3.90625 8.09375 C1.33667454 10.66332546 -0.6204767 10.78973893 -4.1875 11.25 C-5.27417969 11.39953125 -6.36085938 11.5490625 -7.48046875 11.703125 C-8.31191406 11.80109375 -9.14335938 11.8990625 -10 12 C-10.66 10.68 -11.32 9.36 -12 8 C-11.21753906 7.50628906 -10.43507813 7.01257813 -9.62890625 6.50390625 C-8.61699219 5.86324219 -7.60507812 5.22257813 -6.5625 4.5625 C-5.55316406 3.92441406 -4.54382813 3.28632812 -3.50390625 2.62890625 C-1.15446165 1.22350458 -1.15446165 1.22350458 0 0 Z " fill="#93D673" transform="translate(1013,552)"/>
<path d="M0 0 C0.99 0.66 1.98 1.32 3 2 C3.66 1.67 4.32 1.34 5 1 C5 1.99 5 2.98 5 4 C5.66 4 6.32 4 7 4 C8.625 5.5 8.625 5.5 10 7 C10.33 6.34 10.66 5.68 11 5 C11 5.66 11 6.32 11 7 C11.66 7 12.32 7 13 7 C13 7.66 13 8.32 13 9 C11.125 10.0625 11.125 10.0625 9 11 C6.48916886 9.74458443 6.12874554 8.49936512 5 6 C1.96707046 7.14083176 1.96707046 7.14083176 -1 9 C-1.96906827 11.58414426 -1.96906827 11.58414426 -2 14 C-0.68 14.33 0.64 14.66 2 15 C1.67 15.66 1.34 16.32 1 17 C-3.29238623 15.34908222 -5.8793915 12.26245434 -9 9 C-8.67 8.01 -8.34 7.02 -8 6 C-7.34 5.67 -6.68 5.34 -6 5 C-6.33 4.01 -6.66 3.02 -7 2 C-6.34 2 -5.68 2 -5 2 C-4.34 2.66 -3.68 3.32 -3 4 C-2.34 3.67 -1.68 3.34 -1 3 C-0.67 2.01 -0.34 1.02 0 0 Z " fill="#90D577" transform="translate(1159,538)"/>
<path d="M0 0 C2.89932357 2.39509338 3.50168276 4.31245243 4 8 C7.05847848 8.54372951 9.88772805 9 13 9 C14.68236471 9.62599617 16.3523962 10.28752268 18 11 C17.67 12.32 17.34 13.64 17 15 C15.68 15 14.36 15 13 15 C11.22590192 16.92022703 11.22590192 16.92022703 10 19 C10 17.68 10 16.36 10 15 C9.34 14.34 8.68 13.68 8 13 C8 12.34 8 11.68 8 11 C7.67 11.66 7.34 12.32 7 13 C6.34 13 5.68 13 5 13 C5 12.34 5 11.68 5 11 C4.01 11 3.02 11 2 11 C2.33 9.68 2.66 8.36 3 7 C2.34 7 1.68 7 1 7 C0.67 4.69 0.34 2.38 0 0 Z " fill="#83D28F" transform="translate(1104,544)"/>
<path d="M0 0 C5.52955402 4.33397477 6.5545217 9.28969018 8 16 C2.81754271 13.83059927 -0.04661997 11.70694943 -3 7 C-2.06976744 2.06976744 -2.06976744 2.06976744 0 0 Z " fill="#5485B2" transform="translate(1080,643)"/>
<path d="M0 0 C0.99 0.33 1.98 0.66 3 1 C3.99 0.67 4.98 0.34 6 0 C6.66 1.98 7.32 3.96 8 6 C3.47446339 8.26276831 -0.03417595 8.48056362 -5 8 C-7 6 -7 6 -8 4 C-7.2575 4.185625 -6.515 4.37125 -5.75 4.5625 C-3.05009037 4.99203108 -1.55368923 4.85122974 1 4 C0.67 2.68 0.34 1.36 0 0 Z " fill="#558CB6" transform="translate(1011,610)"/>
<path d="M0 0 C0.33 0.66 0.66 1.32 1 2 C3.31 2 5.62 2 8 2 C8.33 2.99 8.66 3.98 9 5 C6.36 4.67 3.72 4.34 1 4 C1.99 4.33 2.98 4.66 4 5 C3.67 5.66 3.34 6.32 3 7 C2.34 6.67 1.68 6.34 1 6 C1.99 7.485 1.99 7.485 3 9 C2.625 11.1875 2.625 11.1875 2 13 C2 12.34 2 11.68 2 11 C1.34 11 0.68 11 0 11 C0 9.68 0 8.36 0 7 C-0.66 7 -1.32 7 -2 7 C-2.33 5.35 -2.66 3.7 -3 2 C-2.01 2 -1.02 2 0 2 C0 1.34 0 0.68 0 0 Z " fill="#63C77E" transform="translate(1031,650)"/>
<path d="M0 0 C2 1.25 2 1.25 4 3 C4 4.32 4 5.64 4 7 C4.66 7 5.32 7 6 7 C6 7.66 6 8.32 6 9 C5.38125 8.814375 4.7625 8.62875 4.125 8.4375 C1.95839822 7.76313824 1.95839822 7.76313824 0 9 C-2.03144641 8.06553465 -4.03533587 7.06775224 -6 6 C-4 5 -4 5 -2 5 C-1.34 3.35 -0.68 1.7 0 0 Z " fill="#63C678" transform="translate(1018,633)"/>
<path d="M0 0 C6.02900687 0.51241107 12.02004643 1.069785 18 2 C17.360625 2.28875 16.72125 2.5775 16.0625 2.875 C13.84793921 3.82823451 13.84793921 3.82823451 13 6 C8.71 4.35 4.42 2.7 0 1 C0 0.67 0 0.34 0 0 Z " fill="#9ED97B" transform="translate(1087,483)"/>
<path d="M0 0 C0.66 0 1.32 0 2 0 C1.88490339 1.41750563 1.75746342 2.83401169 1.625 4.25 C1.55539062 5.03890625 1.48578125 5.8278125 1.4140625 6.640625 C0.98492887 9.085877 0.21399362 10.84836903 -1 13 C-1.33 11.02 -1.66 9.04 -2 7 C-2.66 7.66 -3.32 8.32 -4 9 C-3.4739075 5.21213403 -2.61896089 2.82847776 0 0 Z " fill="#64C672" transform="translate(1010,634)"/>
<path d="M0 0 C2.475 0.99 2.475 0.99 5 2 C4.67 3.32 4.34 4.64 4 6 C2.68 6 1.36 6 0 6 C-1.77409808 7.92022703 -1.77409808 7.92022703 -3 10 C-2.39009109 6.44219804 -1.4216319 3.3171411 0 0 Z " fill="#8DD47C" transform="translate(1117,553)"/>
<path d="M0 0 C0.66 0 1.32 0 2 0 C2 0.99 2 1.98 2 3 C2.66 3 3.32 3 4 3 C5.625 4.5 5.625 4.5 7 6 C7.33 5.34 7.66 4.68 8 4 C8 4.66 8 5.32 8 6 C8.66 6 9.32 6 10 6 C10 6.66 10 7.32 10 8 C8.125 9.0625 8.125 9.0625 6 10 C3.48916886 8.74458443 3.12874554 7.49936512 2 5 C1.34 5 0.68 5 0 5 C0 3.35 0 1.7 0 0 Z " fill="#85D28B" transform="translate(1162,539)"/>
<path d="M0 0 C-0.33 1.98 -0.66 3.96 -1 6 C-2.32 6 -3.64 6 -5 6 C-5.66 4.68 -6.32 3.36 -7 2 C-2.25 0 -2.25 0 0 0 Z " fill="#558AB5" transform="translate(1018,596)"/>
<path d="M0 0 C2.89932357 2.39509338 3.50168276 4.31245243 4 8 C4.66 8 5.32 8 6 8 C5.67 8.99 5.34 9.98 5 11 C4.01 11 3.02 11 2 11 C2.33 9.68 2.66 8.36 3 7 C2.34 7 1.68 7 1 7 C0.67 4.69 0.34 2.38 0 0 Z " fill="#8AD381" transform="translate(1104,544)"/>
<path d="M0 0 C0.94875 0.350625 1.8975 0.70125 2.875 1.0625 C2.545 2.0525 2.215 3.0425 1.875 4.0625 C-1.125 4.0625 -1.125 4.0625 -3.125 3.0625 C-3.125 2.4025 -3.125 1.7425 -3.125 1.0625 C-3.785 0.7325 -4.445 0.4025 -5.125 0.0625 C-3.125 -0.9375 -3.125 -0.9375 0 0 Z " fill="#64C672" transform="translate(1004.125,633.9375)"/>
<path d="M0 0 C1.32 0.99 2.64 1.98 4 3 C3.34 3 2.68 3 2 3 C1.34 4.32 0.68 5.64 0 7 C-0.66 6.34 -1.32 5.68 -2 5 C-1.34 3.35 -0.68 1.7 0 0 Z " fill="#62C581" transform="translate(1067,668)"/>
</svg>
