<?xml version="1.0" encoding="UTF-8"?>
<svg version="1.1" xmlns="http://www.w3.org/2000/svg" width="1920" height="1080">
<path d="M0 0 C633.6 0 1267.2 0 1920 0 C1920 356.4 1920 712.8 1920 1080 C1286.4 1080 652.8 1080 0 1080 C0 723.6 0 367.2 0 0 Z " fill="#000000" transform="translate(0,0)"/>
<path d="M0 0 C4.07399474 2.24069711 6.44860709 5.17291063 9 9 C9.25415033 11.03808045 9.25415033 11.03808045 9.26006222 13.42572403 C9.26712781 14.33654653 9.2741934 15.24736903 9.2814731 16.18579221 C9.27905802 17.18781635 9.27664293 18.18984049 9.27415466 19.222229 C9.27939134 20.28566048 9.28462802 21.34909196 9.29002339 22.44474864 C9.30508521 26.02602879 9.3057299 29.60716685 9.30639648 33.18847656 C9.31401386 35.74895979 9.32244063 38.30944072 9.33161926 40.86991882 C9.35361404 47.83900372 9.3623915 54.80803909 9.36744571 61.77715397 C9.37070147 66.12862922 9.37722327 70.48009561 9.3844471 74.83156586 C9.40401568 86.87911825 9.42041809 98.92666241 9.42332363 110.97423172 C9.4235112 111.74541196 9.42369877 112.5165922 9.42389202 113.31114154 C9.42425828 114.87452714 9.42462197 116.43791274 9.42498314 118.00129834 C9.42516595 118.77736891 9.42534876 119.55343948 9.42553711 120.35302734 C9.42580793 121.51855401 9.42580793 121.51855401 9.42608423 122.70762667 C9.42962538 135.29634408 9.45664286 147.88489037 9.494035 160.47354844 C9.53211625 173.39763822 9.5514811 186.32164311 9.55178314 199.24579024 C9.5523678 206.50242886 9.56086457 213.75886342 9.58978081 221.01544952 C9.61685502 227.84120865 9.61820103 234.66655734 9.60212517 241.49234962 C9.60030568 243.99856 9.60704618 246.50479329 9.62294388 249.0109539 C9.64331733 252.43106331 9.63290207 255.849746 9.61473083 259.26983643 C9.6279308 260.26293768 9.64113077 261.25603894 9.65473074 262.27923417 C9.57530206 268.81925568 8.384545 272.0949376 4 277 C-0.4246647 280.04810235 -4.71582437 280.88921331 -10 280 C-14.3133209 278.60888839 -17.04509255 276.49535602 -19.15625 272.46875 C-21.42067466 267.69674097 -21.66183989 263.21747582 -21.75 258 C-21.77964844 257.12988281 -21.80929687 256.25976562 -21.83984375 255.36328125 C-21.90975408 253.24266784 -21.95723116 251.12133437 -22 249 C-22.4125 249.556875 -22.825 250.11375 -23.25 250.6875 C-36.75380948 268.53181967 -54.68799788 279.82562722 -77 283 C-80.90063882 283.30540623 -84.77579842 283.38129245 -88.6875 283.375 C-89.73752197 283.37338867 -90.78754395 283.37177734 -91.86938477 283.37011719 C-103.75080383 283.18388519 -114.40217443 280.4333055 -125 275 C-125.8353125 274.60425781 -126.670625 274.20851563 -127.53125 273.80078125 C-148.24452555 263.41438302 -162.94162266 244.2056414 -170.875 222.75 C-175.30779186 209.344626 -177.20381592 196.81005829 -177.24023438 182.71459961 C-177.24987113 180.46754946 -177.28092048 178.22144301 -177.3125 175.97460938 C-177.515762 148.11293621 -166.50313392 122.56775448 -147.125 102.6875 C-141.92730014 97.54082252 -136.42393949 93.53452965 -130 90 C-128.61748047 89.20142578 -128.61748047 89.20142578 -127.20703125 88.38671875 C-108.47653499 78.19995763 -85.37806483 76.1010865 -65 82 C-48.09652196 87.11193892 -32.02976919 95.95534622 -22 111 C-21.99635437 109.74798798 -21.99270874 108.49597595 -21.98895264 107.20602417 C-21.952007 95.4053891 -21.89423874 83.60501508 -21.81609726 71.80457878 C-21.77659291 65.73787226 -21.74441877 59.67131154 -21.72900391 53.60449219 C-21.71385708 47.74935048 -21.67944593 41.89460953 -21.63169098 36.03964615 C-21.61685693 33.80618905 -21.60895783 31.57267475 -21.60811615 29.33916855 C-21.60575092 26.20989027 -21.57870566 23.08172346 -21.54589844 19.95263672 C-21.55344398 18.56835732 -21.55344398 18.56835732 -21.56114197 17.15611267 C-21.45009293 10.30712405 -19.41663922 6.86975907 -15 1.625 C-10.15240598 -1.00078009 -5.37241871 -0.95936048 0 0 Z " fill="#FDFDFD" transform="translate(1867,405)"/>
<path d="M0 0 C2.05655402 1.96606811 4.0681601 3.97103123 6.0625 6 C6.82304687 6.76183594 7.58359375 7.52367187 8.3671875 8.30859375 C30.15283645 31.40816316 34.10054727 60.90801943 33.24169922 91.28466797 C32.90160692 98.33579135 31.47443595 104.36717614 29.0625 111 C28.64300119 112.31159754 28.22643923 113.62413726 27.8125 114.9375 C19.70677331 139.5479794 1.92067249 159.26077634 -21.01513672 171.06835938 C-35.41378398 178.04641855 -49.17197839 180.42266983 -65.125 180.375 C-65.81003601 180.37445618 -66.49507202 180.37391235 -67.2008667 180.37335205 C-83.14012929 180.31515747 -95.71114086 177.48187788 -109.9375 170 C-110.96746094 169.46375 -111.99742187 168.9275 -113.05859375 168.375 C-120.23725481 164.42445022 -126.0853597 159.71125544 -131.9375 154 C-132.824375 153.154375 -133.71125 152.30875 -134.625 151.4375 C-135.7696875 150.2309375 -135.7696875 150.2309375 -136.9375 149 C-137.45570313 148.46503906 -137.97390625 147.93007813 -138.5078125 147.37890625 C-149.94368722 135.04559742 -156.96099725 119.22202445 -160.9375 103 C-161.14246094 102.1853125 -161.34742188 101.370625 -161.55859375 100.53125 C-167.24156382 73.25299364 -161.75045101 43.45620841 -146.9375 20 C-130.59893351 -3.79101412 -107.68405774 -18.1212733 -79.484375 -23.46484375 C-51.00596403 -27.43225597 -21.25723899 -19.56036214 0 0 Z " fill="#010100" transform="translate(473.9375,508)"/>
<path d="M0 0 C23.36874952 -0.6001605 49.36327359 10.28835715 66.5 26.125 C78.87748121 38.20997356 87.88267869 53.13432598 91.49609375 70.125 C91.67237305 70.89118652 91.84865234 71.65737305 92.03027344 72.44677734 C93.64912268 80.18796024 93.86843249 87.83875883 93.86669922 95.7121582 C93.87106734 97.92412717 93.90749867 100.13408544 93.9453125 102.34570312 C94.04485635 114.8142447 91.34994457 125.9270555 86.18359375 137.3125 C85.88291992 137.98120117 85.58224609 138.64990234 85.27246094 139.33886719 C80.12329395 150.51239847 73.10237432 159.43948313 64.49609375 168.125 C63.69171875 168.94226563 62.88734375 169.75953125 62.05859375 170.6015625 C49.2830762 182.83075858 31.69504304 190.6893999 14.49609375 194.125 C13.70041992 194.29418945 12.90474609 194.46337891 12.08496094 194.63769531 C5.37243604 195.98402645 -1.04098268 196.44314247 -7.87890625 196.375 C-8.88767822 196.36678223 -9.8964502 196.35856445 -10.93579102 196.35009766 C-35.36013955 195.98441072 -56.13267782 187.29569477 -73.50390625 170.125 C-74.58091797 169.15626953 -74.58091797 169.15626953 -75.6796875 168.16796875 C-85.64918417 158.99763013 -92.48504499 146.95148058 -96.50390625 134.125 C-97.05498047 132.37509766 -97.05498047 132.37509766 -97.6171875 130.58984375 C-101.03474112 119.16900093 -102.83199454 108.55280665 -102.69140625 96.625 C-102.69076172 95.55507813 -102.69011719 94.48515625 -102.68945312 93.3828125 C-102.64505175 85.5484365 -102.64505175 85.5484365 -101.50390625 82.125 C-101.24044593 79.81399483 -100.99267678 77.50118643 -100.75390625 75.1875 C-98.47602149 56.64569634 -86.61652586 37.26063626 -72.50390625 25.125 C-68.13750072 21.96463793 -63.45163367 19.5443709 -58.60546875 17.21484375 C-56.30596869 16.02235208 -54.18158445 14.6520169 -52.00390625 13.25 C-36.17937101 3.69236786 -18.17890714 0.90752735 0 0 Z " fill="#5381AF" transform="translate(1084.50390625,482.875)"/>
<path d="M0 0 C5.23151984 4.72112766 7.74788836 9.55226714 10.29296875 15.984375 C10.64031067 16.84173248 10.98765259 17.69908997 11.34552002 18.58242798 C12.09511709 20.4353578 12.84088518 22.28984029 13.58322144 24.14569092 C15.17643218 28.12853027 16.78808913 32.103826 18.39833069 36.07980347 C19.23081247 38.13614544 20.06229463 40.19289236 20.89280701 42.25003052 C24.8661747 52.08862792 28.92422257 61.8909872 33 71.6875 C34.40809396 75.07659795 35.81538593 78.46602872 37.22265625 81.85546875 C37.57511917 82.70414017 37.92758209 83.55281158 38.29072571 84.42720032 C42.51972403 94.61259169 46.72885438 104.80618586 50.9375 115 C51.33183228 115.95510468 51.72616455 116.91020935 52.13244629 117.89425659 C53.73339137 121.77197161 55.33430597 125.6496992 56.93508911 129.52748108 C59.76341935 136.37848196 62.59409069 143.22851243 65.42578125 150.078125 C77.86397706 180.16781193 77.86397706 180.16781193 83.99609375 195.09765625 C84.35025864 195.95990311 84.70442352 196.82214996 85.06932068 197.71052551 C86.77428797 201.86346792 88.47625962 206.01760118 90.17260742 210.17407227 C92.92102556 216.90482536 95.68026572 223.62640192 98.5546875 230.3046875 C98.98700684 231.32046875 99.41932617 232.33625 99.86474609 233.3828125 C100.6223705 235.15688286 101.39203959 236.92589943 102.17822266 238.6875 C104.6006452 244.39585467 106.01092863 250.28029488 103.84301758 256.31542969 C101.79012198 260.28556927 99.75641855 262.79555074 95.5625 264.3125 C86.84453896 265.63708943 86.84453896 265.63708943 82.82495117 263.30395508 C65.52575103 250.13597704 56.66230901 209.18078445 50.5625 194.3125 C10.9625 194.3125 -28.6375 194.3125 -69.4375 194.3125 C-76.8625 212.6275 -76.8625 212.6275 -84.4375 231.3125 C-96.38693996 260.28083929 -96.38693996 260.28083929 -101.37890625 263.60546875 C-106.2580887 265.28124109 -111.63499447 265.04117245 -116.375 263.125 C-120.23147214 259.73597903 -121.64348422 256.90453295 -121.98046875 251.796875 C-121.85830824 242.75255509 -117.49723394 234.70101602 -113.9375 226.5625 C-113.15651565 224.73619907 -112.37774563 222.90894981 -111.60107422 221.08081055 C-110.00147349 217.31875012 -108.39365947 213.56036674 -106.78027344 209.80419922 C-103.61005222 202.40047995 -100.56456052 194.94677048 -97.52593994 187.48831177 C-95.88744446 183.46909326 -94.24055059 179.45332125 -92.59375 175.4375 C-92.25965118 174.62249527 -91.92555237 173.80749054 -91.58132935 172.9677887 C-87.42920254 162.84493538 -83.24398808 152.73574967 -79.0625 142.625 C-72.82175587 127.53397821 -66.61234459 112.43060328 -60.4375 97.3125 C-52.19776809 77.14054694 -43.89759543 56.9939694 -35.55723572 36.86341858 C-33.66090317 32.28266757 -31.77432318 27.69829398 -29.90884399 23.10488892 C-29.19490345 21.34726176 -28.47742447 19.59107314 -27.75976562 17.83496094 C-26.95878678 15.87349413 -26.16382113 13.90955283 -25.37695312 11.94238281 C-23.27410425 6.81693806 -21.27835332 2.22572775 -16.5234375 -0.9765625 C-11.02314544 -2.85119388 -5.15682749 -2.5315335 0 0 Z " fill="#FCFCFC" transform="translate(670.4375,420.6875)"/>
<path d="M0 0 C1.09320557 0.15670166 2.18641113 0.31340332 3.31274414 0.47485352 C19.65564019 3.0589602 39.97988946 8.41847623 51.5 21.0625 C53.4010025 25.27776642 53.74609702 28.70062083 52.9375 33.25 C50.40509618 38.2210149 46.94888866 41.74430567 41.9375 44.25 C35.18046567 45.00578014 30.03195239 42.58793868 23.875 40 C8.18500673 33.63059805 -5.65344333 30.07151273 -22.6875 30.0625 C-24.47994141 30.04413086 -24.47994141 30.04413086 -26.30859375 30.02539062 C-51.18597893 29.9849615 -72.71742907 37.74170147 -92.0625 53.25 C-92.7534375 53.77722656 -93.444375 54.30445313 -94.15625 54.84765625 C-110.55349132 68.0890793 -121.46104843 90.11864937 -126.0625 110.25 C-126.26875 111.09046875 -126.475 111.9309375 -126.6875 112.796875 C-132.36929132 140.10103884 -126.19747136 170.86259047 -111.15234375 194.21484375 C-96.73862201 214.64622267 -78.39242879 228.78800442 -54.375 236 C-53.3236084 236.31650513 -53.3236084 236.31650513 -52.25097656 236.6394043 C-36.34700753 241.19916577 -17.10263629 240.86005625 -1.0625 237.25 C0.82082031 236.8478125 0.82082031 236.8478125 2.7421875 236.4375 C11.19368865 234.53443185 19.05859758 231.81386218 27.0234375 228.421875 C29.9375 227.25 29.9375 227.25 31.9375 227.25 C31.9375 205.14 31.9375 183.03 31.9375 160.25 C13.44873924 160.40813205 13.44873924 160.40813205 -5.03955078 160.61035156 C-7.36229721 160.62203715 -9.68505185 160.63222928 -12.0078125 160.640625 C-13.20784912 160.66108887 -14.40788574 160.68155273 -15.64428711 160.70263672 C-22.07456117 160.7053244 -26.22282887 160.68336505 -31.0625 156.25 C-34.95301416 151.8228632 -35.51792368 147.56495011 -35.484375 141.828125 C-34.78169748 137.53398462 -32.2874423 135.01199438 -29.0625 132.25 C-25.43118162 129.82912108 -22.7616002 129.96087231 -18.56518555 129.9753418 C-17.80385315 129.97023087 -17.04252075 129.96511993 -16.25811768 129.95985413 C-13.73840495 129.94594173 -11.21896535 129.94691652 -8.69921875 129.94921875 C-6.94667967 129.94533188 -5.19414153 129.94099723 -3.44160461 129.93623352 C0.23451793 129.92876716 3.91054445 129.92906498 7.58666992 129.93432617 C12.29099508 129.94011242 16.99492545 129.92321238 21.69918537 129.8999815 C25.32037138 129.88522546 28.94146282 129.88437515 32.56267357 129.88749123 C34.29656949 129.88697866 36.0304708 129.88175303 37.76433754 129.87167931 C40.19381692 129.85929987 42.62253415 129.86611589 45.05200195 129.87768555 C45.76442551 129.87004181 46.47684906 129.86239807 47.21086121 129.85452271 C51.8900758 129.9036103 55.09108626 130.55345767 58.9375 133.25 C63.68601063 138.62369775 64.66468027 143.57735094 64.55273438 150.56835938 C64.55828339 151.46375931 64.5638324 152.35915924 64.56954956 153.2816925 C64.58128867 156.21960228 64.55712893 159.15594982 64.53125 162.09375 C64.52953727 164.14823334 64.52960623 166.20271886 64.53137207 168.25720215 C64.52972207 172.55433174 64.51108264 176.85093761 64.47949219 181.14794922 C64.43981607 186.64227699 64.43544914 192.1359196 64.44295502 197.63036346 C64.44603186 201.87016012 64.43387875 206.10980419 64.41682434 210.3495636 C64.40981803 212.37485293 64.40666692 214.40015954 64.40751648 216.42546082 C64.40570871 219.26116899 64.38424337 222.09607253 64.35742188 224.93164062 C64.36035248 225.75992874 64.36328308 226.58821686 64.36630249 227.44160461 C64.27790677 233.53169321 63.30967323 239.20346967 59.45605469 244.15258789 C54.66094889 247.9292836 49.61305366 250.8995568 44.1875 253.6875 C43.26718994 254.16195557 42.34687988 254.63641113 41.39868164 255.12524414 C32.48674981 259.62284746 23.49246906 263.35908183 13.9375 266.25 C12.86121338 266.58451172 12.86121338 266.58451172 11.76318359 266.92578125 C-23.07784261 277.20699831 -62.98060734 270.09196031 -94.3125 253.0625 C-126.54691584 234.65843194 -147.58189777 204.15611001 -157.375 168.875 C-157.62975098 167.95976563 -157.88450195 167.04453125 -158.14697266 166.1015625 C-167.51508545 130.95357831 -159.80752677 93.66517497 -142.0546875 62.71484375 C-123.55863552 31.7067566 -93.13088145 10.70929457 -58.38818359 1.80224609 C-38.94079705 -2.81564057 -19.71298 -2.83130039 0 0 Z " fill="#FCFCFC" transform="translate(194.0625,417.75)"/>
<path d="M0 0 C2.05655402 1.96606811 4.0681601 3.97103123 6.0625 6 C6.82304687 6.76183594 7.58359375 7.52367187 8.3671875 8.30859375 C30.15283645 31.40816316 34.10054727 60.90801943 33.24169922 91.28466797 C32.90160692 98.33579135 31.47443595 104.36717614 29.0625 111 C28.64300119 112.31159754 28.22643923 113.62413726 27.8125 114.9375 C19.70677331 139.5479794 1.92067249 159.26077634 -21.01513672 171.06835938 C-35.41378398 178.04641855 -49.17197839 180.42266983 -65.125 180.375 C-65.81003601 180.37445618 -66.49507202 180.37391235 -67.2008667 180.37335205 C-83.14012929 180.31515747 -95.71114086 177.48187788 -109.9375 170 C-110.96746094 169.46375 -111.99742187 168.9275 -113.05859375 168.375 C-120.23725481 164.42445022 -126.0853597 159.71125544 -131.9375 154 C-132.824375 153.154375 -133.71125 152.30875 -134.625 151.4375 C-135.7696875 150.2309375 -135.7696875 150.2309375 -136.9375 149 C-137.45570313 148.46503906 -137.97390625 147.93007813 -138.5078125 147.37890625 C-149.94368722 135.04559742 -156.96099725 119.22202445 -160.9375 103 C-161.14246094 102.1853125 -161.34742188 101.370625 -161.55859375 100.53125 C-167.24156382 73.25299364 -161.75045101 43.45620841 -146.9375 20 C-130.59893351 -3.79101412 -107.68405774 -18.1212733 -79.484375 -23.46484375 C-51.00596403 -27.43225597 -21.25723899 -19.56036214 0 0 Z M-118.25 30.75 C-132.35241169 49.12140897 -134.15010795 72.30958812 -131.63720703 94.67236328 C-128.74123983 112.0518556 -118.33459159 129.61879544 -103.9375 140 C-87.68578896 150.88732512 -70.02724553 154.78270528 -50.5625 151.61328125 C-37.89894957 148.78659589 -26.61123492 142.6609893 -17.9375 133 C-17.1125 132.236875 -16.2875 131.47375 -15.4375 130.6875 C-7.82909888 122.50846879 -3.52288412 113.44107315 0.0625 103 C0.40539062 102.01902344 0.74828125 101.03804687 1.1015625 100.02734375 C3.27261889 92.48951712 3.33539225 85.05272736 3.375 77.25 C3.38063965 76.18410645 3.3862793 75.11821289 3.39208984 74.02001953 C3.20192836 53.36332583 -5.34049758 35.45295306 -19.9375 21 C-26.59822064 14.7555744 -33.34762249 11.01231144 -41.9375 8 C-42.57244385 7.73960937 -43.2073877 7.47921875 -43.86157227 7.2109375 C-50.48654653 4.66675446 -56.71027511 4.55145673 -63.75 4.625 C-64.84892578 4.61339844 -65.94785156 4.60179687 -67.08007812 4.58984375 C-88.80096934 4.66664124 -104.44169927 14.79079088 -118.25 30.75 Z " fill="#FCFCFC" transform="translate(473.9375,508)"/>
<path d="M0 0 C7.903674 6.23246789 13.48349866 13.21428838 18.45703125 21.9375 C19.04097656 22.95457031 19.04097656 22.95457031 19.63671875 23.9921875 C26.37752613 36.5854788 27.63722669 48.80235527 27.64453125 62.8125 C27.65677734 64.04097656 27.66902344 65.26945313 27.68164062 66.53515625 C27.69251581 73.29952303 27.3061901 79.42520649 25.45703125 85.9375 C25.25722656 86.78699219 25.05742188 87.63648438 24.8515625 88.51171875 C21.0831193 102.19445547 14.46439793 112.18367316 4.45703125 121.9375 C3.84988281 122.55367187 3.24273438 123.16984375 2.6171875 123.8046875 C-7.54277769 133.3933099 -21.76337404 137.52096709 -35.41796875 137.3125 C-36.38323486 137.30234863 -37.34850098 137.29219727 -38.34301758 137.28173828 C-55.1142293 136.91736164 -69.04510926 130.64714709 -80.8203125 118.609375 C-89.4370212 108.77012473 -95.52943582 96.65989408 -98.54296875 83.9375 C-98.71924805 83.19491943 -98.89552734 82.45233887 -99.07714844 81.68725586 C-103.93955482 59.42438092 -100.25167391 37.33074253 -88.54296875 17.9375 C-86.40750836 14.72062057 -84.13114996 11.79937393 -81.54296875 8.9375 C-81.01316406 8.32777344 -80.48335937 7.71804688 -79.9375 7.08984375 C-59.92253321 -14.54153366 -23.74949555 -16.52138821 0 0 Z " fill="#000000" transform="translate(1819.54296875,523.0625)"/>
<path d="M0 0 C1.13231284 0.94968174 2.25848521 1.90679419 3.375 2.875 C4.220625 3.4525 5.06625 4.03 5.9375 4.625 C19.69692695 17.3260095 25.44038663 38.80835266 26.56455421 56.9307518 C26.63907526 60.1302679 26.656821 63.32453003 26.6496582 66.52490234 C26.65476913 67.72645966 26.65988007 68.92801697 26.66514587 70.16598511 C26.6765632 73.42182037 26.67913276 76.67749557 26.67658257 79.93334532 C26.67550407 82.66228161 26.68041759 85.39119504 26.685188 88.12012637 C26.69622643 94.55650184 26.6967503 100.9928189 26.69067383 107.42919922 C26.68461485 114.05499895 26.69700651 120.68058736 26.7182439 127.30635107 C26.73587067 133.01705661 26.74186026 138.72769488 26.73860615 144.43842661 C26.7367976 147.84004595 26.73938814 151.24151387 26.75332069 154.64310837 C26.76564325 158.42939425 26.75891977 162.21518699 26.74731445 166.00146484 C26.75495819 167.12053223 26.76260193 168.23959961 26.77047729 169.39257812 C26.72729776 175.75940528 26.36292572 180.59917518 21.875 185.51953125 C16.93560357 189.3655717 13.63920086 190.39701674 7.375 189.875 C2.90651553 188.24246392 -0.14120637 185.9028495 -2.76022148 181.86347961 C-4.6039395 177.62401758 -4.16434416 172.9446237 -4.12329102 168.40039062 C-4.13156921 166.67716583 -4.13156921 166.67716583 -4.14001465 164.91912842 C-4.14932964 162.42777718 -4.14944401 159.93637832 -4.14142036 157.44502258 C-4.12878059 153.49195079 -4.1395954 149.53931922 -4.15745544 145.58630371 C-4.18823768 137.89508393 -4.18978048 130.20399583 -4.18780518 122.51272583 C-4.18641183 112.75248183 -4.19706254 102.99234148 -4.2363829 93.23217154 C-4.25354433 88.68903491 -4.24678198 84.14629021 -4.23524475 79.60314941 C-4.25111907 61.93317959 -4.45994317 43.80877672 -16.578125 29.58203125 C-27.03363738 19.92920585 -40.37802662 17.06226406 -54.2734375 17.52734375 C-70.3347466 18.52270253 -85.51750717 25.96860429 -96.40625 37.8125 C-104.83247072 48.47424867 -107.9351606 59.12531461 -107.86450195 72.48242188 C-107.86651611 73.63287491 -107.86853027 74.78332794 -107.87060547 75.96864319 C-107.87414257 78.45891581 -107.87339428 80.94919743 -107.86882973 83.43946838 C-107.86322656 87.38223604 -107.87241136 91.32471063 -107.8860321 95.26745605 C-107.9236708 106.47469838 -107.94195964 117.68185735 -107.93041992 128.88916016 C-107.92352905 135.75086475 -107.94282625 142.61214724 -107.97630882 149.47377014 C-107.98426179 152.0860122 -107.98298736 154.69829937 -107.97228432 157.31053162 C-107.95795841 160.96333859 -107.97422836 164.61484306 -107.99731445 168.26757812 C-107.97966286 169.88243858 -107.97966286 169.88243858 -107.96165466 171.52992249 C-108.04571037 178.31552631 -109.01849896 181.8158441 -113.625 186.875 C-118.0805738 189.94439528 -122.33745986 190.82675722 -127.625 189.875 C-132.91612204 187.12768663 -136.71875244 183.59374267 -138.625 177.875 C-138.7258226 175.58288894 -138.76441354 173.28790562 -138.77217102 170.99359131 C-138.77584771 170.28951244 -138.7795244 169.58543356 -138.7833125 168.86001897 C-138.79434741 166.49488811 -138.79819284 164.12980119 -138.80200195 161.76464844 C-138.80826674 160.07115031 -138.81491356 158.37765357 -138.82191467 156.68415833 C-138.84295524 151.11757362 -138.85331689 145.55098864 -138.86328125 139.984375 C-138.86732877 138.06806677 -138.87144569 136.15175868 -138.87563133 134.23545074 C-138.8946828 125.23275478 -138.90891406 116.23006701 -138.9172433 107.22735476 C-138.9270167 96.83528559 -138.95333909 86.44342937 -138.99374419 76.05143523 C-139.02390317 68.01905821 -139.03871196 59.98674224 -139.04202431 51.9543097 C-139.04437502 47.15688014 -139.0533381 42.35967809 -139.07848549 37.56230927 C-139.10176745 33.04786969 -139.10599897 28.5338074 -139.09572411 24.01932335 C-139.09522867 22.36453941 -139.10155152 20.7097369 -139.11528015 19.05500984 C-139.13300925 16.79100406 -139.12588932 14.52835084 -139.11274719 12.26434326 C-139.11513555 10.99893078 -139.1175239 9.7335183 -139.11998463 8.42975998 C-138.35053968 2.90394772 -136.11206228 -0.77626909 -131.9375 -4.5625 C-126.507889 -7.12363726 -121.92053771 -6.94792861 -116.3125 -4.9375 C-112.79729166 -2.5667781 -110.51859619 0.08780762 -108.625 3.875 C-108.47324451 5.46762066 -108.37599675 7.06564856 -108.30859375 8.6640625 C-108.26669922 9.60507812 -108.22480469 10.54609375 -108.18164062 11.515625 C-108.14232422 12.50046875 -108.10300781 13.4853125 -108.0625 14.5 C-108.01931641 15.49257813 -107.97613281 16.48515625 -107.93164062 17.5078125 C-107.82538931 19.96339838 -107.72335036 22.41908703 -107.625 24.875 C-107.23755615 24.34825684 -106.8501123 23.82151367 -106.45092773 23.27880859 C-93.56941239 5.90837081 -75.54779559 -6.25463115 -54.171875 -10.66015625 C-35.94762191 -13.04857708 -15.18436528 -11.26674184 0 0 Z " fill="#FDFDFD" transform="translate(1602.625,495.125)"/>
<path d="M0 0 C4.9492112 2.02467731 8.61845033 6.23690065 11 11 C11.09998658 12.54851045 11.13776673 14.10123473 11.14476013 15.6529541 C11.15165863 16.63412201 11.15855713 17.61528992 11.16566467 18.62619019 C11.16827805 19.70667633 11.17089142 20.78716248 11.17358398 21.90039062 C11.180271 23.03554108 11.18695801 24.17069153 11.19384766 25.34024048 C11.20792667 27.81312474 11.21981157 30.28602221 11.22979546 32.75892639 C11.24617993 36.67685695 11.26941988 40.59469056 11.29469299 44.51257324 C11.36585747 55.65514009 11.42548083 66.79775447 11.47680664 77.94042969 C11.50826081 84.75089723 11.54998569 91.56125052 11.59700203 98.37162781 C11.61298056 100.96463551 11.62532119 103.55766835 11.63390923 106.15071106 C11.64612566 109.7887368 11.67030495 113.42650896 11.69702148 117.06445312 C11.69761063 118.12874542 11.69819977 119.19303772 11.69880676 120.2895813 C11.83229381 134.07637299 14.77133777 147.7582216 24.64453125 157.96484375 C36.58223569 168.27917876 50.3690419 171.15748344 65.76367188 170.21142578 C76.68250859 169.17914275 85.94783174 166.24903134 95 160 C95.70511719 159.69320312 96.41023438 159.38640625 97.13671875 159.0703125 C99.50153214 157.71190816 99.94063715 156.47643263 101 154 C101.80057584 152.7423297 102.61348533 151.49243957 103.4375 150.25 C110.33460408 139.21463347 111.30643257 126.8636829 111.25537109 114.08447266 C111.25899155 112.96094391 111.262612 111.83741516 111.26634216 110.67984009 C111.27318554 108.26386954 111.2757512 105.8478837 111.27439499 103.43190384 C111.2734229 99.60662757 111.2864495 95.78162699 111.30337524 91.95639038 C111.34946356 81.08894828 111.37435982 70.22154037 111.38085938 59.35400391 C111.38501426 52.68756687 111.41007794 46.02146509 111.44618607 39.35511398 C111.45598509 36.82020199 111.45831549 34.28524964 111.45301437 31.75032425 C111.44595729 28.2129482 111.46319546 24.6764529 111.48583984 21.13916016 C111.47358116 19.57276794 111.47358116 19.57276794 111.46107483 17.97473145 C111.52933545 11.98656906 112.02317064 8.56596401 116 4 C120.13503025 0.34578722 123.37727544 -0.65970869 128.7578125 -0.37890625 C133.98108178 0.50377166 137.03926587 2.70147761 140.16786194 6.93006897 C142.86317364 11.91652436 142.55171503 17.01275763 142.50170898 22.55639648 C142.50981346 24.27502144 142.50981346 24.27502144 142.51808167 26.02836609 C142.53056861 29.80953972 142.51406758 33.5899514 142.49609375 37.37109375 C142.49624883 40.01318908 142.49773935 42.65528465 142.50050354 45.29737854 C142.5032025 50.83790897 142.48976914 56.37822243 142.46655273 61.91870117 C142.44006313 68.28349578 142.4381592 74.64792512 142.4499411 81.01275581 C142.46081173 87.17278139 142.45445224 93.33267752 142.44038582 99.49269295 C142.43590129 102.09471318 142.43550799 104.69674407 142.43945122 107.29876518 C142.46023332 133.09947978 140.40869149 157.04369071 122.06640625 177.02734375 C102.69841474 195.51663621 78.44803265 199.60276169 52.69433594 199.08886719 C32.65525187 198.42791878 12.79934326 190.26960694 -1.15625 175.7578125 C-15.15272839 159.3388667 -20.32493612 138.1287153 -20.2746582 116.99267578 C-20.27976913 115.85939346 -20.28488007 114.72611115 -20.29014587 113.55848694 C-20.30392166 109.85404013 -20.30309535 106.14978169 -20.30078125 102.4453125 C-20.30467245 99.85366752 -20.30900799 97.26202317 -20.31376648 94.67037964 C-20.32120106 89.25907032 -20.32109565 83.84783306 -20.31567383 78.43652344 C-20.30961393 72.19243971 -20.32200986 65.94858017 -20.3432439 59.70453465 C-20.36299829 53.67209503 -20.36603296 47.6397728 -20.36250877 41.60729599 C-20.36302194 39.050032 -20.36825879 36.49276441 -20.37832069 33.93552017 C-20.39064831 30.36715535 -20.38391691 26.79931338 -20.37231445 23.23095703 C-20.37995819 22.17734482 -20.38760193 21.1237326 -20.39547729 20.03819275 C-20.35094125 13.84531639 -19.88991719 9.09581459 -15.46484375 4.35546875 C-10.00299905 0.17876398 -6.80095394 -0.63869828 0 0 Z " fill="#FBFBFB" transform="translate(1251,489)"/>
<path d="M0 0 C24.52888457 0.1605819 50.90004499 10.46986931 68.58642578 27.73828125 C80.18523566 39.64542837 90.98141459 55.93307808 92.27734375 72.9296875 C92.07421875 75.265625 92.07421875 75.265625 89.82421875 77.453125 C84.12334843 81.2105168 79.90125849 82.11087754 73.07421875 81.265625 C67.45109107 78.6703353 64.53738084 74.19527267 61.07421875 69.265625 C59.41768189 67.60908814 57.46771079 68.09456335 55.19921875 68.078125 C54.31492187 68.06394531 53.430625 68.04976562 52.51953125 68.03515625 C49.81655149 68.09494076 49.81655149 68.09494076 47.07421875 70.265625 C47.52585724 72.79480054 48.00241387 74.17658695 49.63671875 76.203125 C51.47039811 78.83405625 51.53573848 80.11190683 51.07421875 83.265625 C50.47609375 83.9875 49.87796875 84.709375 49.26171875 85.453125 C47.7403133 88.16746793 47.7403133 88.16746793 48.91796875 90.59375 C50.2512639 93.18282315 51.65377044 95.72355469 53.07421875 98.265625 C55.01061739 102.84256725 55.24406731 105.44298399 54.07421875 110.265625 C52.47265625 112.90625 52.47265625 112.90625 50.44921875 115.515625 C49.72734375 116.4746875 49.00546875 117.43375 48.26171875 118.421875 C46.9125806 120.17575459 45.55928527 121.9264563 44.19921875 123.671875 C40.05131491 129.22710335 37.4042415 134.79752656 35.02685547 141.26464844 C33.24959924 146.09024451 33.24959924 146.09024451 31.07421875 148.265625 C28.46297622 148.06476019 26.67040828 147.68043018 24.5078125 146.17578125 C22.39913431 143.36612557 22.10428421 140.28042634 21.57421875 136.890625 C20.50784153 130.10944345 20.50784153 130.10944345 17.07421875 124.265625 C14.78332838 123.59599289 14.78332838 123.59599289 12.26171875 123.703125 C7.45905709 123.44408931 4.78118696 122.52052391 1.07421875 119.265625 C-1.07124772 116.3063609 -2.11262482 113.78681613 -2.92578125 110.265625 C-3.83344238 110.25104248 -4.74110352 110.23645996 -5.67626953 110.22143555 C-9.06487435 110.16014351 -12.45269814 110.08594924 -15.84082031 110.00317383 C-17.30327833 109.97005365 -18.7658602 109.94198195 -20.22851562 109.91918945 C-22.33907528 109.88540325 -24.44851311 109.8330812 -26.55859375 109.77734375 C-27.82590332 109.75115967 -29.09321289 109.72497559 -30.39892578 109.69799805 C-35.180441 109.11181063 -38.63895256 107.76692514 -41.80078125 104.078125 C-43.29267559 100.34838914 -43.50955098 97.23039442 -42.92578125 93.265625 C-41.80078125 90.703125 -41.80078125 90.703125 -39.92578125 88.265625 C-39.30509766 87.43224609 -39.30509766 87.43224609 -38.671875 86.58203125 C-31.21451944 77.13333824 -21.52566351 74.01163419 -9.92578125 72.390625 C-4.13641745 71.49188806 1.35040161 69.85057637 6.07421875 66.265625 C6.89939468 64.19081658 6.89939468 64.19081658 7.07421875 62.265625 C5.34171875 62.8534375 5.34171875 62.8534375 3.57421875 63.453125 C1.74179428 64.06004266 -0.09171851 64.6636762 -1.92578125 65.265625 C-2.87420898 65.57886719 -2.87420898 65.57886719 -3.84179688 65.8984375 C-5.95058665 66.59141091 -8.06276779 67.27314955 -10.17578125 67.953125 C-10.86091797 68.17959717 -11.54605469 68.40606934 -12.25195312 68.6394043 C-19.1439157 70.83558701 -19.1439157 70.83558701 -22.92578125 70.265625 C-25.06971888 68.77378218 -25.79047962 67.87265395 -26.359375 65.3203125 C-26.36897129 59.96558193 -25.3575585 56.2179643 -22.80078125 51.50390625 C-21.69355652 48.67158586 -21.78783621 46.2788619 -21.92578125 43.265625 C-23.06015625 43.09546875 -24.19453125 42.9253125 -25.36328125 42.75 C-42.98111917 39.97121665 -42.98111917 39.97121665 -48.98828125 34.328125 C-49.92578125 32.265625 -49.92578125 32.265625 -50.11328125 29.890625 C-47.09691139 23.22286006 -39.21900571 20.04943335 -32.74609375 17.5 C-27.81418634 15.81327129 -22.7479976 14.63395176 -17.67578125 13.453125 C-16.7410498 13.23390381 -15.80631836 13.01468262 -14.84326172 12.78881836 C-9.41016752 11.59118004 -4.48725534 11.03716069 1.07421875 11.265625 C1.07421875 10.605625 1.07421875 9.945625 1.07421875 9.265625 C-0.24578125 8.935625 -1.56578125 8.605625 -2.92578125 8.265625 C-3.55078125 5.390625 -3.55078125 5.390625 -3.92578125 2.265625 C-1.92578125 0.265625 -1.92578125 0.265625 0 0 Z " fill="#95D66E" transform="translate(1083.92578125,482.734375)"/>
<path d="M0 0 C3.48463335 3.3790384 4.3970716 6.30286971 4.61328125 11.125 C4.32144285 15.96023174 3.40496397 18.96599187 -0.01171875 22.5625 C-4.48523022 25.61262146 -8.70159584 26.32951775 -14.01171875 25.5625 C-15.37735766 25.09474179 -16.73151549 24.59251445 -18.07421875 24.0625 C-25.95599275 21.18893656 -36.39971845 20.95112949 -44.1171875 24.515625 C-45.05498047 25.03382813 -45.05498047 25.03382813 -46.01171875 25.5625 C-46.83285156 26.01109375 -47.65398437 26.4596875 -48.5 26.921875 C-64.3671739 36.04256163 -74.87631901 50.91542398 -79.88671875 68.5 C-81.74906993 75.93761769 -82.16086775 83.08636299 -82.16943359 90.71704102 C-82.17451431 91.71304321 -82.17959503 92.70904541 -82.18482971 93.73522949 C-82.19549252 95.88827715 -82.20412857 98.04133562 -82.21094894 100.19439888 C-82.22278457 103.6033664 -82.242247 107.0122099 -82.2640686 110.42112732 C-82.32554552 120.11005537 -82.37978851 129.79896783 -82.41308594 139.48803711 C-82.43402575 145.42249907 -82.46931557 151.35672969 -82.51384354 157.29105949 C-82.52799991 159.54964414 -82.53672515 161.80826965 -82.53989792 164.06689644 C-82.54480465 167.22396231 -82.56795463 170.38041267 -82.59521484 173.53735352 C-82.59220871 174.46791061 -82.58920258 175.39846771 -82.58610535 176.35722351 C-82.66131553 182.22047703 -83.39625578 186.69502628 -87.51171875 191.20703125 C-92.45111518 195.0530717 -95.74751789 196.08451674 -102.01171875 195.5625 C-107.12022829 193.79211882 -109.49412219 191.28629476 -112.14631557 186.52429783 C-113.53182162 183.38346957 -113.51562785 180.52405623 -113.51965332 177.11741638 C-113.52589328 176.40104714 -113.53213325 175.6846779 -113.5385623 174.9466005 C-113.55442473 172.56358623 -113.54191557 170.18160451 -113.52929688 167.79858398 C-113.53472098 166.08316454 -113.54184526 164.36774975 -113.55053711 162.65234375 C-113.56873777 158.00569269 -113.56171679 153.35939777 -113.54902077 148.71274066 C-113.53887785 143.84551725 -113.54828988 138.97832388 -113.55456543 134.11109924 C-113.56183737 125.93932635 -113.55226528 117.76769818 -113.53320312 109.59594727 C-113.51142798 100.15218371 -113.51849224 90.70876551 -113.54050875 81.2650103 C-113.55866695 73.15101208 -113.56121923 65.03711775 -113.55075407 56.92310578 C-113.5445224 52.07941627 -113.54367471 47.23588905 -113.55690002 42.39221001 C-113.56846427 37.8390907 -113.56042238 33.28641633 -113.537323 28.73334503 C-113.53203928 27.06364493 -113.53354394 25.3939073 -113.54237366 23.72422218 C-113.55332648 21.44251131 -113.53957084 19.16222067 -113.51965332 16.88059998 C-113.51814522 15.60471229 -113.51663712 14.3288246 -113.51508331 13.01427364 C-112.74279497 7.7183813 -110.26565225 4.67062728 -106.32421875 1.1875 C-101.47758036 -1.19009619 -97.17729426 -1.48648483 -92.01953125 0.22265625 C-87.46213366 2.4817954 -84.70351776 5.76266303 -83.01171875 10.5625 C-82.39541213 15.20583087 -82.31570587 19.82029839 -82.26171875 24.5 C-82.23207031 25.75619141 -82.20242188 27.01238281 -82.171875 28.30664062 C-82.10148679 31.39199054 -82.04863373 34.47659823 -82.01171875 37.5625 C-81.56699219 36.75425781 -81.12226562 35.94601562 -80.6640625 35.11328125 C-69.71101252 15.38702662 -55.15423246 2.92137289 -33.7421875 -4.19140625 C-22.56843915 -7.1558701 -9.63865918 -6.88743025 0 0 Z " fill="#FCFCFC" transform="translate(940.01171875,489.4375)"/>
<path d="M0 0 C2.31644731 2.10450377 3.59187719 3.90902229 4.76733398 6.80151367 C5.08368805 7.56908493 5.40004211 8.33665619 5.72598267 9.12748718 C6.06261932 9.9658461 6.39925598 10.80420502 6.74609375 11.66796875 C7.10947845 12.55494949 7.47286316 13.44193024 7.84725952 14.35578918 C8.63647711 16.28458906 9.4222463 18.21480268 10.20498657 20.14624023 C11.87734754 24.27283554 13.56591757 28.39273562 15.25328064 32.51321411 C16.1393145 34.67762381 17.02444066 36.84240529 17.90870667 39.00753784 C22.39414059 49.98680442 26.94657188 60.93779874 31.51272583 71.88369751 C32.78439118 74.93260707 34.05433886 77.98222723 35.32397461 81.03198242 C36.1182313 82.93802809 36.91258062 84.84403516 37.70703125 86.75 C38.26858162 88.09877983 38.26858162 88.09877983 38.84147644 89.47480774 C40.50150084 93.4526597 42.17483459 97.42266473 43.90380859 101.37109375 C44.3316993 102.35094238 44.3316993 102.35094238 44.76823425 103.35058594 C45.51039198 105.04203281 46.26009349 106.73016438 47.01049805 108.41796875 C48 111 48 111 48 114 C16.98 114 -14.04 114 -46 114 C-45.10984108 109.54920542 -43.80220139 105.74467426 -42.0703125 101.59765625 C-41.76826904 100.86417969 -41.46622559 100.13070312 -41.1550293 99.375 C-40.14930048 96.93570772 -39.13716303 94.49912871 -38.125 92.0625 C-37.41219158 90.33732593 -36.69979787 88.61198046 -35.98779297 86.88647461 C-34.46438703 83.19672567 -32.93826697 79.50811537 -31.41015625 75.8203125 C-28.9546327 69.89322121 -26.50796724 63.96249613 -24.0625 58.03125 C-16.07863199 38.6721112 -8.08072212 19.31895005 0 0 Z " fill="#010101" transform="translate(660,470)"/>
<path d="M0 0 C0.90492187 0.02320313 1.80984375 0.04640625 2.7421875 0.0703125 C3.65226562 0.08835937 4.56234375 0.10640625 5.5 0.125 C6.19867187 0.14820313 6.89734375 0.17140625 7.6171875 0.1953125 C8.1121875 1.1853125 8.1121875 1.1853125 8.6171875 2.1953125 C10.36648446 3.17628529 10.36648446 3.17628529 12.4296875 4.0703125 C15.77759993 5.69918911 18.38069622 7.12013699 20.6171875 10.1953125 C21.2421875 12.6328125 21.2421875 12.6328125 20.6171875 15.1953125 C16.52937349 19.15944076 12.83848459 21.25445189 7.3046875 22.6953125 C6.56847168 22.89543945 5.83225586 23.09556641 5.07373047 23.30175781 C-7.4444052 26.46635826 -20.41091332 27.93598544 -33.18505859 29.70214844 C-35.64812764 30.08200792 -37.98681917 30.52655882 -40.3828125 31.1953125 C-40.3828125 32.1853125 -40.3828125 33.1753125 -40.3828125 34.1953125 C-34.29537246 35.61571518 -28.28871341 36.67484886 -22.08203125 37.4375 C-18.69968761 38.38710154 -17.34049389 39.26604109 -15.3828125 42.1953125 C-15.48296925 47.7039336 -17.44872719 52.56954628 -19.4453125 57.6328125 C-19.72697266 58.36435547 -20.00863281 59.09589844 -20.29882812 59.84960938 C-20.98694497 61.63404796 -21.68395856 63.41505155 -22.3828125 65.1953125 C-19.86045337 64.42921783 -17.34000511 63.65759023 -14.8203125 62.8828125 C-14.11583984 62.66947266 -13.41136719 62.45613281 -12.68554688 62.23632812 C-9.22984084 61.16935898 -5.89250377 60.02886229 -2.5859375 58.55859375 C1.16934241 56.96030998 3.57951499 56.5858525 7.6171875 57.1953125 C10.78631554 59.87688238 11.5201416 61.52812191 12.1171875 65.6328125 C11.36340827 71.0034895 9.22293086 73.89263181 5.05078125 77.27734375 C0.77669351 79.66480346 -2.89183424 80.14366046 -7.6953125 80.6953125 C-14.46501738 81.61860051 -20.44078992 82.62197774 -26.3828125 86.1953125 C-27.9915625 87.154375 -27.9915625 87.154375 -29.6328125 88.1328125 C-32.57307251 90.33800751 -35.06465065 92.3317008 -37.3828125 95.1953125 C-37.80171468 98.40593038 -37.80171468 98.40593038 -37.3828125 101.1953125 C-32.97603064 102.87931334 -29.33598254 103.43524016 -24.62890625 103.43359375 C-23.36240234 103.44970703 -22.09589844 103.46582031 -20.79101562 103.48242188 C-18.14002304 103.49937362 -15.48892944 103.50454771 -12.83789062 103.49804688 C-11.57267578 103.51802734 -10.30746094 103.53800781 -9.00390625 103.55859375 C-7.27805298 103.56306519 -7.27805298 103.56306519 -5.51733398 103.56762695 C-1.46418689 104.37926658 0.00837501 106.06816162 2.6171875 109.1953125 C3.91816303 111.49089049 4.69016464 113.70698798 5.6171875 116.1953125 C6.2565625 116.0303125 6.8959375 115.8653125 7.5546875 115.6953125 C10.06274235 115.28583416 12.45951897 114.96751033 14.9921875 114.8203125 C15.70117188 114.77132812 16.41015625 114.72234375 17.140625 114.671875 C21.06410004 115.50112682 23.97938147 117.14761296 26.6171875 120.1953125 C27.58707513 123.31084092 27.59822344 126.26310482 27.5546875 129.5078125 C27.57080078 130.34376953 27.58691406 131.17972656 27.60351562 132.04101562 C27.63867796 134.09215161 27.6320989 136.14392934 27.6171875 138.1953125 C27.90851563 137.67211426 28.19984375 137.14891602 28.5 136.60986328 C38.69618791 118.39379644 38.69618791 118.39379644 45.05859375 111.10546875 C47.293578 108.39753137 47.293578 108.39753137 48.6171875 105.1953125 C47.79060947 101.91041522 47.79060947 101.91041522 46.3046875 98.4453125 C43.34672882 90.88695222 43.34672882 90.88695222 43.0546875 86.7578125 C42.64362002 83.4105487 42.26657969 82.33142033 40.5546875 79.6328125 C38.31788808 75.6642974 37.96516888 73.67794053 38.6171875 69.1953125 C41.05239392 64.41856144 43.79819174 61.55934816 48.6171875 59.1953125 C54.12988515 58.19300384 58.76951633 59.08370377 63.640625 61.78125 C66.68994367 63.96277838 69.16398558 66.60542404 71.66015625 69.390625 C73.89368862 71.45028958 75.7168374 72.32612241 78.6171875 73.1953125 C83.22619554 72.86011192 87.28755341 71.77932497 91.6171875 70.1953125 C91.9296875 72.4453125 91.9296875 72.4453125 91.6171875 75.1953125 C87.46762446 79.2296099 83.54443149 81.47993487 77.7421875 81.5703125 C72.88757097 81.44218479 70.29427211 80.53811669 66.6171875 77.1953125 C64.48596251 74.61276927 62.54099159 71.93375675 60.6171875 69.1953125 C58.96065064 67.53877564 57.01067954 68.02425085 54.7421875 68.0078125 C53.85789062 67.99363281 52.97359375 67.97945312 52.0625 67.96484375 C49.35952024 68.02462826 49.35952024 68.02462826 46.6171875 70.1953125 C47.06882599 72.72448804 47.54538262 74.10627445 49.1796875 76.1328125 C51.01336686 78.76374375 51.07870723 80.04159433 50.6171875 83.1953125 C50.0190625 83.9171875 49.4209375 84.6390625 48.8046875 85.3828125 C47.28328205 88.09715543 47.28328205 88.09715543 48.4609375 90.5234375 C49.79423265 93.11251065 51.19673919 95.65324219 52.6171875 98.1953125 C54.55358614 102.77225475 54.78703606 105.37267149 53.6171875 110.1953125 C52.015625 112.8359375 52.015625 112.8359375 49.9921875 115.4453125 C49.2703125 116.404375 48.5484375 117.3634375 47.8046875 118.3515625 C46.45554935 120.10544209 45.10225402 121.8561438 43.7421875 123.6015625 C39.59428366 129.15679085 36.94721025 134.72721406 34.56982422 141.19433594 C32.79256799 146.01993201 32.79256799 146.01993201 30.6171875 148.1953125 C28.00594497 147.99444769 26.21337703 147.61011768 24.05078125 146.10546875 C21.94210306 143.29581307 21.64725296 140.21011384 21.1171875 136.8203125 C20.05081028 130.03913095 20.05081028 130.03913095 16.6171875 124.1953125 C14.32629713 123.52568039 14.32629713 123.52568039 11.8046875 123.6328125 C7.00202584 123.37377681 4.32415571 122.45021141 0.6171875 119.1953125 C-1.52827897 116.2360484 -2.56965607 113.71650363 -3.3828125 110.1953125 C-4.29047363 110.18072998 -5.19813477 110.16614746 -6.13330078 110.15112305 C-9.5219056 110.08983101 -12.90972939 110.01563674 -16.29785156 109.93286133 C-17.76030958 109.89974115 -19.22289145 109.87166945 -20.68554688 109.84887695 C-22.79610653 109.81509075 -24.90554436 109.7627687 -27.015625 109.70703125 C-28.28293457 109.68084717 -29.55024414 109.65466309 -30.85595703 109.62768555 C-35.63747225 109.04149813 -39.09598381 107.69661264 -42.2578125 104.0078125 C-43.74970684 100.27807664 -43.96658223 97.16008192 -43.3828125 93.1953125 C-42.2578125 90.6328125 -42.2578125 90.6328125 -40.3828125 88.1953125 C-39.76212891 87.36193359 -39.76212891 87.36193359 -39.12890625 86.51171875 C-31.67155069 77.06302574 -21.98269476 73.94132169 -10.3828125 72.3203125 C-4.5934487 71.42157556 0.89337036 69.78026387 5.6171875 66.1953125 C6.44236343 64.12050408 6.44236343 64.12050408 6.6171875 62.1953125 C4.8846875 62.783125 4.8846875 62.783125 3.1171875 63.3828125 C1.28476303 63.98973016 -0.54874976 64.5933637 -2.3828125 65.1953125 C-3.33124023 65.50855469 -3.33124023 65.50855469 -4.29882812 65.828125 C-6.4076179 66.52109841 -8.51979904 67.20283705 -10.6328125 67.8828125 C-11.31794922 68.10928467 -12.00308594 68.33575684 -12.70898438 68.5690918 C-19.60094695 70.76527451 -19.60094695 70.76527451 -23.3828125 70.1953125 C-25.52675013 68.70346968 -26.24751087 67.80234145 -26.81640625 65.25 C-26.82600254 59.89526943 -25.81458975 56.1476518 -23.2578125 51.43359375 C-22.15058777 48.60127336 -22.24486746 46.2085494 -22.3828125 43.1953125 C-23.5171875 43.02515625 -24.6515625 42.855 -25.8203125 42.6796875 C-43.43815042 39.90090415 -43.43815042 39.90090415 -49.4453125 34.2578125 C-50.3828125 32.1953125 -50.3828125 32.1953125 -50.5703125 29.8203125 C-47.55394264 23.15254756 -39.67603696 19.97912085 -33.203125 17.4296875 C-28.27121759 15.74295879 -23.20502885 14.56363926 -18.1328125 13.3828125 C-17.19808105 13.16359131 -16.26334961 12.94437012 -15.30029297 12.71850586 C-9.86719877 11.52086754 -4.94428659 10.96684819 0.6171875 11.1953125 C0.6171875 10.5353125 0.6171875 9.8753125 0.6171875 9.1953125 C-0.7028125 8.8653125 -2.0228125 8.5353125 -3.3828125 8.1953125 C-4.0078125 5.3203125 -4.0078125 5.3203125 -4.3828125 2.1953125 C-2.3828125 0.1953125 -2.3828125 0.1953125 0 0 Z " fill="#67C65B" transform="translate(1084.3828125,482.8046875)"/>
<path d="M0 0 C0.495 1.485 0.495 1.485 1 3 C3.01508358 3.73323796 3.01508358 3.73323796 5 4 C5 4.66 5 5.32 5 6 C4.04222656 6.17015625 3.08445312 6.3403125 2.09765625 6.515625 C-2.27601922 7.30437521 -6.63866198 8.14595449 -11 9 C-11.72622559 9.13921875 -12.45245117 9.2784375 -13.20068359 9.421875 C-30.86633981 12.80948506 -30.86633981 12.80948506 -45 23 C-45.23450072 26.01499858 -45.23450072 26.01499858 -44 29 C-38.24007903 33.82225942 -31.9915135 35.14467782 -24.6875 36.0625 C-18.10526316 36.89473684 -18.10526316 36.89473684 -17 38 C-16.48780417 42.09756664 -17.21184888 44.70460499 -19 48.3125 C-21.16134654 52.83446617 -21.90465028 57.02442348 -21 62 C-20.34 62.66 -19.68 63.32 -19 64 C-11.95913146 64 -6.09824735 61.72464704 0.32666016 59.08398438 C4.02385527 57.59392184 6.99800176 56.6354769 11 57 C10.51291513 61.55119926 10.51291513 61.55119926 8.3125 63.4765625 C2.03771005 66.59275886 -3.88498315 67.79581774 -10.73364258 68.84082031 C-20.83082312 70.47364202 -28.55695384 74.9565422 -35.3125 82.625 C-38.29184567 86.81815317 -38.53752178 90.99616091 -38 96 C-36.69982738 99.14778635 -35.87757062 100.5500503 -32.84106445 102.10693359 C-29.38664866 103.1928022 -26.35058848 103.32467683 -22.73046875 103.4140625 C-22.04946609 103.43342865 -21.36846344 103.4527948 -20.66682434 103.4727478 C-18.50717407 103.53218132 -16.34746943 103.578782 -14.1875 103.625 C-12.71677456 103.66321328 -11.24607071 103.70226694 -9.77539062 103.7421875 C-6.18379211 103.83785183 -2.59203087 103.92201575 1 104 C1.33555908 104.69794678 1.67111816 105.39589355 2.0168457 106.11499023 C2.46116943 107.02450439 2.90549316 107.93401855 3.36328125 108.87109375 C3.80196533 109.77529053 4.24064941 110.6794873 4.69262695 111.61108398 C6.41481845 114.75798291 7.57919865 115.85973288 11 117 C13.5701629 117.29290781 16.10994882 117.49945102 18.6953125 117.59375 C21.54840396 118.09666782 22.32022984 118.65428546 24 121 C25.79416073 125.37875591 26.5073945 129.69884411 27.125 134.375 C27.29257813 135.62023437 27.46015625 136.86546875 27.6328125 138.1484375 C27.75398438 139.08945312 27.87515625 140.03046875 28 141 C30.31 141.33 32.62 141.66 35 142 C35.21914062 141.48953125 35.43828125 140.9790625 35.6640625 140.453125 C36.75248007 137.95772862 37.87504315 135.47913689 39 133 C39.40089844 132.08347656 39.80179688 131.16695312 40.21484375 130.22265625 C43.74205552 122.60592359 48.30765919 116.46154428 53.609375 110.03125 C57.22438782 105.50735668 57.22438782 105.50735668 57.9375 100 C56.83105073 93.73012081 53.83129658 87.66259317 51 82 C51.66 82 52.32 82 53 82 C53.60424546 78.98534059 54.06222368 76.08007212 54 73 C52.10183458 70.2094183 52.10183458 70.2094183 50 68 C50.0625 65.8125 50.0625 65.8125 51 64 C54.70803605 61.52797597 57.05077604 61.35022997 61.4296875 61.4140625 C66.16911683 62.49447952 68.29135491 66.22234298 71 70 C74.54291074 73.73441943 76.39079181 75.16457056 81.5625 75.375 C87.37087566 75.35809061 91.27385972 73.19642338 96 70 C98.53880566 75.71231273 99.11392964 81.87338696 98 88 C95.3253337 91.82208231 91.98376128 92.78536117 87.5625 93.75 C82.39415668 92.66192772 79.6809208 89.63422836 76 86 C72.34092858 82.68130732 70.88147806 81.797617 66 82 C65.9906543 82.55349121 65.98130859 83.10698242 65.97167969 83.67724609 C65.65607424 98.54473823 64.10019826 107.91226076 55.2902832 120.11279297 C51.71693569 125.15446685 49.75162037 130.12252502 48 136 C43.2503639 151.2139738 43.2503639 151.2139738 37.8125 155.875 C33.83660143 157.46535943 30.2168728 157.85913857 26 157 C22.67399109 153.92344176 21.0880327 151.08344049 20.89453125 146.50390625 C20.86746094 145.53324219 20.84039063 144.56257812 20.8125 143.5625 C20.11458749 134.82801917 16.7100226 127.14409556 10.3125 121.0625 C2.81278125 115.16368276 -5.79866493 111.91049907 -15.30859375 111.859375 C-16.30310547 111.84003906 -17.29761719 111.82070313 -18.32226562 111.80078125 C-20.39498708 111.76699394 -22.46802045 111.74870293 -24.54101562 111.74609375 C-33.02213775 111.53749657 -33.02213775 111.53749657 -36.59765625 108.703125 C-42.15670491 102.44806537 -41.62892196 95.92100102 -41.17773438 87.91796875 C-40.41121409 79.64628828 -35.38282732 73.32852744 -30.52978516 66.90771484 C-26.655781 61.76735059 -24.18006046 57.55951629 -25 51 C-27.79360806 46.74972488 -30.49633875 44.93953541 -35.125 42.9375 C-36.2696875 42.43476562 -37.414375 41.93203125 -38.59375 41.4140625 C-42.36021079 39.85046295 -46.14408372 38.35123865 -49.9765625 36.95703125 C-52.18645939 35.91180975 -53.46065709 34.89092123 -55 33 C-55.625 30.3125 -55.625 30.3125 -55 27 C-48.74372044 17.02711873 -37.44210943 10.72338052 -27 6 C-25.906875 5.46375 -24.81375 4.9275 -23.6875 4.375 C-16.10404649 1.54727157 -8.13332745 -0.56744145 0 0 Z " fill="#5EC8D4" transform="translate(1080,488)"/>
<path d="M0 0 C4.29516739 1.43954608 7.23247656 3.59646052 10.6875 6.5 C11.64011719 7.2940625 12.59273437 8.088125 13.57421875 8.90625 C16 11 16 11 18 13 C22.571678 13.39411017 25.87218558 13.22566124 30.125 11.5 C33.68122768 10.07474144 36.12782459 9.19329679 40 10 C42.86369157 12.12650364 45.40026453 14.5637699 48 17 C51.95684883 19.91557282 56.08258338 20.9698261 60.79296875 22.15625 C63 23 63 23 65 26 C65.0546875 28.63671875 65.0546875 28.63671875 64.875 31.6875 C64.78458833 40.04555684 67.30914882 44.41591314 72.875 50.5 C80.66972319 57.92170838 90.26288892 63.51901916 101 65 C100.67 65.66 100.34 66.32 100 67 C73.03215898 67.44929121 47.6046656 64.69068881 27.17138672 45.10961914 C25.77672462 43.74402219 24.38819545 42.37217011 23 41 C22.28199219 40.35417969 21.56398438 39.70835937 20.82421875 39.04296875 C11.13558788 30.13098164 3.3715331 17.74084614 0 5 C-0.1171875 2.1328125 -0.1171875 2.1328125 0 0 Z " fill="#65C55C" transform="translate(988,612)"/>
<path d="M0 0 C6.52286873 3.82224862 12.36380198 9.71563101 14.5625 17.0625 C15.41923578 26.9984097 15.20059444 35.59057975 8.9375 43.75 C3.02751891 50.19055296 -4.40771577 53.02022778 -13 53.5 C-20.32826552 53.41236753 -26.92163704 50.08793807 -32.42578125 45.3515625 C-39.03065629 38.107506 -40.18282198 30.57159407 -39.83984375 21.015625 C-39.02843173 13.04330492 -36.10238365 8.09526812 -29.9375 3.0625 C-21.38351534 -3.20239018 -9.7671596 -4.3982551 0 0 Z " fill="#E2A21A" transform="translate(422.4375,556.9375)"/>
<path d="M0 0 C3.70566812 2.54983591 6.96596629 5.48252196 9.50390625 9.20703125 C11.01656601 11.43803568 11.01656601 11.43803568 14.75 11.4375 C17.87625316 11.29513874 19.45970012 10.79940358 22.4375 9.5 C26.81206057 7.65807976 30.31928533 7.23126949 35 8 C38.54027445 9.80353604 40.5473203 11.4012946 42.9375 14.5625 C46.01412667 18.19851333 49.95031071 19.26945196 54.3125 20.82421875 C58.8244584 22.58299201 61.91358959 24.01818733 64.109375 28.609375 C65.79864284 33.14372551 67.25364391 37.74935846 68.65625 42.37890625 C72.96754316 53.9968387 82.49605152 59.44750407 93 65 C93.92554688 65.35578125 94.85109375 65.7115625 95.8046875 66.078125 C98 67 98 67 99 69 C97.87109375 70.5546875 97.87109375 70.5546875 96 72 C82.91883681 71.43534547 71.72582014 63.7187225 63.0703125 54.46484375 C57.54648994 47.88836821 56.54670891 43.23673344 57.15234375 34.63671875 C57.22612016 32.00740668 57.22612016 32.00740668 55.796875 30.22265625 C53.64905755 28.76120655 51.84628863 28.30687662 49.3125 27.75 C44.3318858 26.38834085 41.36358548 24.18594415 37.69140625 20.62109375 C34.76058559 17.79817871 34.76058559 17.79817871 30.9140625 16.953125 C26.06877875 17.57324504 26.06877875 17.57324504 21.4375 19.0625 C17.71962532 20.4924518 14.80945827 21.18844819 11 20 C7.96881192 17.68303295 5.30629987 15.18128192 2.61328125 12.48046875 C-0.75338957 9.28489929 -3.26272443 7 -8 7 C-8 5.02 -8 3.04 -8 1 C-4.98221063 -0.50889469 -3.37677363 -0.50026276 0 0 Z " fill="#5EC8D5" transform="translate(995,606)"/>
<path d="M0 0 C0.66 0.66 1.32 1.32 2 2 C1.6335285 5.01616446 0.49156835 7.00825939 -1.28515625 9.42578125 C-1.73310547 10.05806641 -2.18105469 10.69035156 -2.64257812 11.34179688 C-3.58498771 12.64976286 -4.53547337 13.95194967 -5.49414062 15.24804688 C-8.56831346 19.62641424 -9.68605848 22.47822835 -9 28 C-8.505 29.155 -8.01 30.31 -7.5 31.5 C-5.46194838 36.25545378 -5.18740956 39.81616319 -7 44.6875 C-10.33853797 48.54768453 -14.80844098 50.3216603 -19.625 51.8125 C-24.42812914 54.21406457 -27.34316416 58.6358025 -29.625 63.375 C-31 66 -31 66 -33.125 66.9375 C-33.74375 66.958125 -34.3625 66.97875 -35 67 C-36.93805239 65.06194761 -36.21922188 61.62990827 -36.25 59.0625 C-36.15935675 40.22196878 -24.72449997 21.9944064 -12 8.625 C-8.35784169 5.11291877 -4.41797224 2.44398465 0 0 Z " fill="#93D36F" transform="translate(1020,503)"/>
<path d="M0 0 C1.32 0.33 2.64 0.66 4 1 C2.67600263 4.65841379 0.93690698 7.90804692 -1.0234375 11.26318359 C-5.71556973 19.22894817 -5.71556973 19.22894817 -6.8046875 28.19921875 C-5.21270378 33.74024948 -2.57079383 38.83499992 0.0546875 43.94921875 C3.20082345 50.22064545 4.67414438 56.03384143 4 63 C1.82405156 66.57477243 -0.16801811 68.42567026 -4 70 C-6.28662109 70.27124023 -6.28662109 70.27124023 -8.7734375 70.30859375 C-9.6809375 70.33373047 -10.5884375 70.35886719 -11.5234375 70.38476562 C-13.41660086 70.41977618 -15.30983704 70.45105772 -17.203125 70.47851562 C-22.62499461 70.63594952 -26.2091008 71.22245415 -31 74 C-34.375 74.1875 -34.375 74.1875 -37 74 C-39.83022097 70.00439392 -38.76210446 66.57262677 -38 62 C-37.34 63.32 -36.68 64.64 -36 66 C-34.04734483 65.78096272 -34.04734483 65.78096272 -32 65 C-30.86643219 63.35514408 -30.86643219 63.35514408 -30.125 61.3125 C-27.09191657 54.79137063 -23.54982923 51.41132423 -16.8125 48.8125 C-15.97332031 48.53019531 -15.13414062 48.24789062 -14.26953125 47.95703125 C-11.11397851 46.62637648 -9.5211291 45.04225819 -8 42 C-7.67728752 37.88541583 -7.86141517 35.32336461 -9.5 31.5 C-11.23374873 27.4545863 -11.50463197 25.37047329 -11 21 C-9.46397293 18.0624567 -7.51789545 15.49776828 -5.5 12.875 C-1.4846183 7.92312888 -1.4846183 7.92312888 0.34375 2.0078125 C0.2303125 1.34523438 0.116875 0.68265625 0 0 Z " fill="#5FC8D4" transform="translate(1021,503)"/>
<path d="M0 0 C1.31677734 -0.02126953 1.31677734 -0.02126953 2.66015625 -0.04296875 C4.9375 0.1875 4.9375 0.1875 6.9375 2.1875 C6.9375 10.44815907 3.30568425 14.73052355 -2.28515625 20.46875 C-8.24840131 26.12337971 -8.24840131 26.12337971 -11.83984375 26.40625 C-12.57332031 26.3340625 -13.30679687 26.261875 -14.0625 26.1875 C-15.93922475 20.55732576 -16.03398418 13.81578373 -13.8125 8.25 C-10.27070261 2.05185457 -7.08828473 0.0521965 0 0 Z " fill="#66C55B" transform="translate(1148.0625,620.8125)"/>
<path d="M0 0 C3.71430081 0.78195807 5.20912895 1.63130231 7.4375 4.6953125 C9.28162339 8.06339897 10.48345211 11.61743991 11.66796875 15.26171875 C12.5213383 17.94881056 12.5213383 17.94881056 14.5625 20.75 C14.1875 23.4375 14.1875 23.4375 13.5625 25.75 C6.7538371 26.35791633 2.86792974 25.08650939 -2.4375 20.75 C-4.75 18.125 -4.75 18.125 -6.4375 15.75 C-7.41980498 14.7326127 -8.41219597 13.72403883 -9.4375 12.75 C-6.17988227 1.34833795 -6.17988227 1.34833795 0 0 Z " fill="#5EC6D5" transform="translate(1080.4375,638.25)"/>
<path d="M0 0 C2.234375 1.13671875 2.234375 1.13671875 4 3 C4.27734375 5.9609375 4.27734375 5.9609375 3.9375 9.375 C3.79634766 11.05722656 3.79634766 11.05722656 3.65234375 12.7734375 C2.77270724 17.1242145 1.11732306 19.88267694 -2 23 C-4.3125 23.4375 -4.3125 23.4375 -7 23 C-9.5 20.8125 -9.5 20.8125 -12 18 C-12.928125 17.21625 -13.85625 16.4325 -14.8125 15.625 C-17 13 -17 13 -17.875 9.5625 C-16.88554253 5.53399458 -16.23268059 4.93387815 -13 2.5625 C-8.34382874 -0.17987489 -5.3294691 -0.81296986 0 0 Z " fill="#5EC7D6" transform="translate(1020,585)"/>
<path d="M0 0 C1.1446875 -0.01063477 1.1446875 -0.01063477 2.3125 -0.02148438 C7.7666719 0.04071232 7.7666719 0.04071232 10.36328125 1.734375 C12.23005151 4.87689173 12.1164089 7.98994861 11.375 11.4375 C8.40652537 17.35196081 3.54531266 21.14654249 -1.76953125 24.89453125 C-3.90305097 26.3929272 -3.90305097 26.3929272 -4.625 29.4375 C-7.14551895 32.05496199 -8.51765481 32.42620051 -12.1875 32.8125 C-15.625 32.4375 -15.625 32.4375 -17.30859375 31.35546875 C-20.44631841 26.78388771 -19.19615302 19.74335138 -18.625 14.4375 C-15.52627926 4.41447737 -10.46198189 -0.27672478 0 0 Z M-11.875 7.875 C-14.60735202 11.87594403 -14.7630252 15.21323929 -14.75 20 C-14.75257812 20.95003906 -14.75515625 21.90007813 -14.7578125 22.87890625 C-14.73270994 25.5587438 -14.73270994 25.5587438 -13.625 28.4375 C-10.29113633 28.82446632 -8.93327697 28.6499221 -6.125 26.71484375 C2.82303646 18.81306422 2.82303646 18.81306422 7.3125 8.125 C7.333125 6.908125 7.35375 5.69125 7.375 4.4375 C4.88494323 1.94744323 4.00029268 2.14046234 0.5625 2.125 C-5.2082712 2.25785229 -7.94815615 3.62091916 -11.875 7.875 Z " fill="#5EC6D2" transform="translate(1147.625,618.5625)"/>
<path d="M0 0 C2.625 0.375 2.625 0.375 5 1 C6.51910761 5.55732284 6.9653845 9.69888953 5.09375 14.16015625 C2.48949095 18.62579276 -0.24391007 21.72104024 -5 24 C-7.875 23.75 -7.875 23.75 -10 23 C-10 21.68 -10 20.36 -10 19 C-9.236875 18.34 -8.47375 17.68 -7.6875 17 C-4.01789073 13.71393746 -3.61077503 9.29655551 -2.67578125 4.64453125 C-2 2 -2 2 0 0 Z " fill="#5EC7D6" transform="translate(1152,586)"/>
<path d="M0 0 C2.0625 0.4375 2.0625 0.4375 4 1 C5.3329995 5.36254382 5.3329995 5.36254382 3.90625 8.09375 C1.33667454 10.66332546 -0.6204767 10.78973893 -4.1875 11.25 C-5.27417969 11.39953125 -6.36085938 11.5490625 -7.48046875 11.703125 C-8.31191406 11.80109375 -9.14335938 11.8990625 -10 12 C-10.66 10.68 -11.32 9.36 -12 8 C-11.21753906 7.50628906 -10.43507813 7.01257813 -9.62890625 6.50390625 C-8.61699219 5.86324219 -7.60507812 5.22257813 -6.5625 4.5625 C-5.55316406 3.92441406 -4.54382813 3.28632812 -3.50390625 2.62890625 C-1.15446165 1.22350458 -1.15446165 1.22350458 0 0 Z " fill="#93D673" transform="translate(1013,552)"/>
<path d="M0 0 C2.89932357 2.39509338 3.50168276 4.31245243 4 8 C7.05847848 8.54372951 9.88772805 9 13 9 C14.68236471 9.62599617 16.3523962 10.28752268 18 11 C17.67 12.32 17.34 13.64 17 15 C15.68 15 14.36 15 13 15 C11.22590192 16.92022703 11.22590192 16.92022703 10 19 C10 17.68 10 16.36 10 15 C9.34 14.34 8.68 13.68 8 13 C8 12.34 8 11.68 8 11 C7.67 11.66 7.34 12.32 7 13 C6.34 13 5.68 13 5 13 C5 12.34 5 11.68 5 11 C4.01 11 3.02 11 2 11 C2.33 9.68 2.66 8.36 3 7 C2.34 7 1.68 7 1 7 C0.67 4.69 0.34 2.38 0 0 Z " fill="#83D28F" transform="translate(1104,544)"/>
<path d="M0 0 C5.52955402 4.33397477 6.5545217 9.28969018 8 16 C2.81754271 13.83059927 -0.04661997 11.70694943 -3 7 C-2.06976744 2.06976744 -2.06976744 2.06976744 0 0 Z " fill="#5485B2" transform="translate(1080,643)"/>
<path d="M0 0 C0.99 0.33 1.98 0.66 3 1 C3.99 0.67 4.98 0.34 6 0 C6.66 1.98 7.32 3.96 8 6 C3.47446339 8.26276831 -0.03417595 8.48056362 -5 8 C-7 6 -7 6 -8 4 C-6.8553125 4.061875 -6.8553125 4.061875 -5.6875 4.125 C-2.77281584 4.22080824 -2.77281584 4.22080824 0 2 C0 1.34 0 0.68 0 0 Z " fill="#558BB5" transform="translate(1011,610)"/>
<path d="M0 0 C3.57601945 1.74827618 5.47135958 2.76456927 7.06640625 6.4921875 C7.7967504 8.98311972 8.44824545 11.46386504 9 14 C6.03 13.505 6.03 13.505 3 13 C3.33 12.34 3.66 11.68 4 11 C4.66 11 5.32 11 6 11 C6 10.34 6 9.68 6 9 C4.35 9 2.7 9 1 9 C0.67 8.01 0.34 7.02 0 6 C-0.66 6 -1.32 6 -2 6 C-1.34 4.02 -0.68 2.04 0 0 Z " fill="#8BCC70" transform="translate(1166,536)"/>
<path d="M0 0 C0.33 0.66 0.66 1.32 1 2 C3.31 2 5.62 2 8 2 C8.33 2.99 8.66 3.98 9 5 C6.36 4.67 3.72 4.34 1 4 C1.99 4.33 2.98 4.66 4 5 C3.67 5.66 3.34 6.32 3 7 C2.34 6.67 1.68 6.34 1 6 C1.99 7.485 1.99 7.485 3 9 C2.625 11.1875 2.625 11.1875 2 13 C2 12.34 2 11.68 2 11 C1.34 11 0.68 11 0 11 C0 9.68 0 8.36 0 7 C-0.66 7 -1.32 7 -2 7 C-2.33 5.35 -2.66 3.7 -3 2 C-2.01 2 -1.02 2 0 2 C0 1.34 0 0.68 0 0 Z " fill="#63C77E" transform="translate(1031,650)"/>
<path d="M0 0 C2 1.25 2 1.25 4 3 C4 4.32 4 5.64 4 7 C4.66 7 5.32 7 6 7 C6 7.66 6 8.32 6 9 C5.38125 8.814375 4.7625 8.62875 4.125 8.4375 C1.95839822 7.76313824 1.95839822 7.76313824 0 9 C-2.03144641 8.06553465 -4.03533587 7.06775224 -6 6 C-4 5 -4 5 -2 5 C-1.34 3.35 -0.68 1.7 0 0 Z " fill="#63C678" transform="translate(1018,633)"/>
<path d="M0 0 C0.66 0 1.32 0 2 0 C1.88490339 1.41750563 1.75746342 2.83401169 1.625 4.25 C1.55539062 5.03890625 1.48578125 5.8278125 1.4140625 6.640625 C0.98492887 9.085877 0.21399362 10.84836903 -1 13 C-1.33 11.02 -1.66 9.04 -2 7 C-2.66 7.66 -3.32 8.32 -4 9 C-3.4739075 5.21213403 -2.61896089 2.82847776 0 0 Z " fill="#64C672" transform="translate(1010,634)"/>
<path d="M0 0 C2.475 0.99 2.475 0.99 5 2 C4.67 3.32 4.34 4.64 4 6 C2.68 6 1.36 6 0 6 C-1.77409808 7.92022703 -1.77409808 7.92022703 -3 10 C-2.39009109 6.44219804 -1.4216319 3.3171411 0 0 Z " fill="#8DD47C" transform="translate(1117,553)"/>
<path d="M0 0 C5.15171623 -0.09038099 9.91913204 0.15318867 15 1 C14.360625 1.28875 13.72125 1.5775 13.0625 1.875 C10.84793921 2.82823451 10.84793921 2.82823451 10 5 C5.05 3.02 5.05 3.02 0 1 C0 0.67 0 0.34 0 0 Z " fill="#8CCB67" transform="translate(1090,484)"/>
<path d="M0 0 C0.66 0 1.32 0 2 0 C2 0.99 2 1.98 2 3 C2.66 3 3.32 3 4 3 C4.33 3.66 4.66 4.32 5 5 C7.52733235 5.65555119 7.52733235 5.65555119 10 6 C10 6.66 10 7.32 10 8 C8.125 9.0625 8.125 9.0625 6 10 C3.48916886 8.74458443 3.12874554 7.49936512 2 5 C1.34 5 0.68 5 0 5 C0 3.35 0 1.7 0 0 Z " fill="#86D28A" transform="translate(1162,539)"/>
<path d="M0 0 C-0.33 1.98 -0.66 3.96 -1 6 C-2.32 6 -3.64 6 -5 6 C-5.66 4.68 -6.32 3.36 -7 2 C-2.25 0 -2.25 0 0 0 Z " fill="#558AB5" transform="translate(1018,596)"/>
<path d="M0 0 C-0.33 1.32 -0.66 2.64 -1 4 C-4 4 -4 4 -6 3 C-6 2.34 -6 1.68 -6 1 C-6.66 0.67 -7.32 0.34 -8 0 C-5.13822943 -1.43088528 -3.06624227 -0.59991697 0 0 Z " fill="#64C670" transform="translate(1007,634)"/>
<path d="M0 0 C2.89932357 2.39509338 3.50168276 4.31245243 4 8 C4.66 8 5.32 8 6 8 C5.67 8.99 5.34 9.98 5 11 C4.01 11 3.02 11 2 11 C2.33 9.68 2.66 8.36 3 7 C2.34 7 1.68 7 1 7 C0.67 4.69 0.34 2.38 0 0 Z " fill="#8AD381" transform="translate(1104,544)"/>
<path d="M0 0 C0.66 0 1.32 0 2 0 C2.33 1.65 2.66 3.3 3 5 C1.68 5.99 0.36 6.98 -1 8 C-1.66 7.67 -2.32 7.34 -3 7 C-3 5.68 -3 4.36 -3 3 C-2.01 2.34 -1.02 1.68 0 1 C0 0.67 0 0.34 0 0 Z " fill="#548CB5" transform="translate(1072,630)"/>
<path d="M0 0 C1.32 0.99 2.64 1.98 4 3 C3.34 3 2.68 3 2 3 C1.34 4.32 0.68 5.64 0 7 C-0.66 6.34 -1.32 5.68 -2 5 C-1.34 3.35 -0.68 1.7 0 0 Z " fill="#62C581" transform="translate(1067,668)"/>
</svg>
